<svg xmlns="http://www.w3.org/2000/svg" width="110.988" height="31.388" viewBox="0 0 110.988 31.388">
  <g id="logo" transform="translate(0 0.04)">
    <path id="パス_918" data-name="パス 918" d="M0,2.05H11.56a20.538,20.538,0,0,1,4.323.441,10.269,10.269,0,0,1,3.585,1.476,7.35,7.35,0,0,1,2.447,2.784,9.433,9.433,0,0,1,.908,4.367,8.771,8.771,0,0,1-1.646,5.38A7.423,7.423,0,0,1,16.369,19.3l7.593,12.613h-7.89L9.829,19.976H6.581V31.914H0ZM6.581,14.407h3.882c.589,0,1.216-.022,1.876-.063a5.976,5.976,0,0,0,1.794-.378,3.114,3.114,0,0,0,1.327-.99,3.011,3.011,0,0,0,.526-1.9,3.156,3.156,0,0,0-.463-1.813A3.142,3.142,0,0,0,14.341,8.23a5.315,5.315,0,0,0-1.646-.486,13.275,13.275,0,0,0-1.813-.126h-4.3v6.792Z" transform="translate(0 -1.315)"/>
    <path id="パス_919" data-name="パス 919" d="M77.03,2.05H88.123a21.846,21.846,0,0,1,4.386.423A9.977,9.977,0,0,1,96.116,3.93a7.35,7.35,0,0,1,2.447,2.784,9.537,9.537,0,0,1,.908,4.408,10.054,10.054,0,0,1-.845,4.386,7.16,7.16,0,0,1-2.321,2.825,9.415,9.415,0,0,1-3.5,1.5,20.446,20.446,0,0,1-4.386.441H83.611V31.914H77.03ZM83.611,14.7H88a8.326,8.326,0,0,0,1.709-.171,4.421,4.421,0,0,0,1.476-.571,3.024,3.024,0,0,0,1.053-1.1,3.463,3.463,0,0,0,.4-1.75,2.955,2.955,0,0,0-.526-1.835A3.5,3.5,0,0,0,90.759,8.2a5.813,5.813,0,0,0-1.835-.486,18.713,18.713,0,0,0-1.939-.1H83.611V14.7Z" transform="translate(-47.657 -1.315)"/>
    <path id="パス_920" data-name="パス 920" d="M149.73,2.05h11.137a28.275,28.275,0,0,1,3.9.274,10.626,10.626,0,0,1,3.522,1.1,6.8,6.8,0,0,1,2.532,2.3,7.063,7.063,0,0,1,.971,3.923,6.363,6.363,0,0,1-1.413,4.2,7.764,7.764,0,0,1-3.733,2.384v.085a8.525,8.525,0,0,1,2.677.823,7.176,7.176,0,0,1,2.069,1.561,6.676,6.676,0,0,1,1.327,2.213,7.82,7.82,0,0,1,.463,2.7,7.185,7.185,0,0,1-1.012,3.945,7.957,7.957,0,0,1-2.614,2.551,11.316,11.316,0,0,1-3.607,1.39,19.268,19.268,0,0,1-3.986.423H149.73Zm6.581,11.938h4.768a6.559,6.559,0,0,0,1.5-.171,4.112,4.112,0,0,0,1.327-.549,2.863,2.863,0,0,0,.949-1.012,3.053,3.053,0,0,0,.36-1.52,2.645,2.645,0,0,0-1.435-2.488,4.956,4.956,0,0,0-1.435-.486,8.778,8.778,0,0,0-1.561-.148h-4.471v6.369Zm0,12.361h5.906a7.089,7.089,0,0,0,1.539-.171,4.051,4.051,0,0,0,1.413-.589,3.335,3.335,0,0,0,1.034-1.1,3.167,3.167,0,0,0,.4-1.646,2.636,2.636,0,0,0-.526-1.709,3.339,3.339,0,0,0-1.327-.99,6.8,6.8,0,0,0-1.731-.463,12.682,12.682,0,0,0-1.728-.126h-4.979Z" transform="translate(-92.616 -1.315)"/>
    <path id="パス_921" data-name="パス 921" d="M241.286,8.495A6.5,6.5,0,0,0,238.9,6.682a7.917,7.917,0,0,0-3.27-.634,8.185,8.185,0,0,0-6.18,2.718,9.247,9.247,0,0,0-1.813,3.059,10.974,10.974,0,0,0-.653,3.837,11.127,11.127,0,0,0,.653,3.86,9.585,9.585,0,0,0,1.794,3.036,8.123,8.123,0,0,0,2.677,2,7.748,7.748,0,0,0,3.311.716,7.413,7.413,0,0,0,3.585-.845,7.134,7.134,0,0,0,2.573-2.362l5.483,4.093a11.4,11.4,0,0,1-4.809,3.923,14.848,14.848,0,0,1-5.991,1.264,18.416,18.416,0,0,1-6.455-1.1,14.767,14.767,0,0,1-5.105-3.144,14.211,14.211,0,0,1-3.352-4.957,16.868,16.868,0,0,1-1.2-6.5,16.868,16.868,0,0,1,1.2-6.5A14.3,14.3,0,0,1,224.7,4.2a14.823,14.823,0,0,1,5.105-3.144,18.416,18.416,0,0,1,6.455-1.1A15.664,15.664,0,0,1,238.9.194a14.366,14.366,0,0,1,2.7.738,11.964,11.964,0,0,1,2.551,1.35,10.234,10.234,0,0,1,2.195,2.069l-5.061,4.134Z" transform="translate(-136.074)"/>
  </g>
</svg>
