<?xml version="1.0" encoding="UTF-8"?>
<svg xmlns="http://www.w3.org/2000/svg" width="180mm" height="40mm" viewBox="0 0 510.24 113.39">
  <defs>
    <style>
      .d {
        fill: #231815;
      }
    </style>
  </defs>
  <g id="a" data-name="レイヤー 1"/>
  <g id="b" data-name="レイヤー 2">
    <g id="c" data-name="レイヤー 1">
      <g>
        <path class="d" d="M0,1.94H18.55V99.66h63.83v11.79H0V1.94Z"/>
        <path class="d" d="M99.93,56.39C99.93,21.33,125.66,0,162.37,0s62.44,21.33,62.44,56.39-25.73,56.99-62.44,56.99-62.44-21.93-62.44-56.99Zm105.92,0c0-27.45-17.35-44.31-43.49-44.31s-43.48,16.86-43.48,44.31,17.15,44.91,43.48,44.91,43.49-17.6,43.49-44.91Z"/>
        <path class="d" d="M247.93,56.84c0-35.36,28.33-56.84,67.02-56.84,20.35,0,33.71,6.86,42.09,13.58l-9.97,8.95c-7.38-5.82-16.76-10.44-31.72-10.44-29.32,0-48.47,17.01-48.47,44.31s17.35,44.91,48.87,44.91c10.37,0,20.54-2.39,26.33-6.42v-28.64h-30.92v-11.49h47.87v45.95c-9.37,7.31-25.53,12.68-45.28,12.68-38.3,0-65.83-21.04-65.83-56.54Z"/>
        <path class="d" d="M385.37,56.39c0-35.06,25.73-56.39,62.44-56.39s62.44,21.33,62.44,56.39-25.73,56.99-62.44,56.99-62.44-21.93-62.44-56.99Zm105.92,0c0-27.45-17.35-44.31-43.49-44.31s-43.48,16.86-43.48,44.31,17.15,44.91,43.48,44.91,43.49-17.6,43.49-44.91Z"/>
      </g>
    </g>
  </g>
</svg>