<svg xmlns="http://www.w3.org/2000/svg" width="293.794" height="52.528" viewBox="0 0 293.794 52.528">
  <g id="brands" transform="translate(-316.666 -220.682)" style="isolation: isolate">
    <g id="グループ_276" data-name="グループ 276" style="isolation: isolate">
      <path id="パス_897" data-name="パス 897" d="M322.495,241.05c0-10.452,0-12.328-.134-14.473-.134-2.277-.67-3.349-2.881-3.818a11.8,11.8,0,0,0-1.943-.2c-.6,0-.871-.135-.871-.4,0-.4.335-.537,1.071-.537,3.016,0,7.237.2,7.572.2,1.608,0,4.221-.2,7.3-.2,10.988,0,13.4,6.7,13.4,10.051,0,5.494-3.149,8.777-6.3,12.06,4.958,1.541,11.591,6.3,11.591,14.137,0,7.169-5.628,14.607-17.085,14.607-.737,0-2.881-.135-4.824-.2-1.943-.134-3.819-.2-4.087-.2-2.144,0-4.221.2-6.566.2-.737,0-1.072-.134-1.072-.469,0-.2.134-.47,1-.47a6.981,6.981,0,0,0,1.609-.2c1.34-.267,1.608-1.808,1.876-3.752.335-2.813.335-8.106.335-14.539Zm5.36,1.474c0,.469.134.6.469.737a23.673,23.673,0,0,0,4.087.268c3.752,0,4.69-.134,6.1-1.742a10.357,10.357,0,0,0,2.412-6.767c0-5.562-2.479-11.525-9.045-11.525a15.034,15.034,0,0,0-3.216.335c-.6.134-.8.335-.8.738Zm0,7.1c0,5.159,0,13.467.067,14.472.2,3.283.2,4.222,2.278,5.227a15.751,15.751,0,0,0,5.9,1c3.618,0,9.447-1.943,9.447-9.513,0-4.021-1.34-9.85-6.5-13.4a11.075,11.075,0,0,0-5.561-1.943c-.871-.134-4.221-.134-5.226-.134-.268,0-.4.134-.4.469Z"/>
      <path id="パス_898" data-name="パス 898" d="M366.983,241.05c0-10.452,0-12.328-.134-14.473-.134-2.277-.67-3.349-2.881-3.818a12.44,12.44,0,0,0-2.278-.2c-.268,0-.536-.135-.536-.4,0-.4.335-.537,1.072-.537,3.015,0,7.236.2,7.571.2.737,0,5.829-.2,7.906-.2,4.221,0,8.71.4,12.262,2.949a11.729,11.729,0,0,1,4.623,9.112c0,4.958-2.078,9.916-8.107,15.478,5.494,7.035,10.049,13,13.936,17.152,3.618,3.818,6.5,4.556,8.174,4.823a16.066,16.066,0,0,0,2.613.2c.335,0,.6.2.6.4,0,.4-.4.536-1.608.536h-4.757c-3.752,0-5.427-.335-7.169-1.274-2.881-1.541-5.226-4.824-9.045-9.848-2.815-3.686-5.964-8.175-7.3-9.917a1.08,1.08,0,0,0-.871-.4l-8.241-.133c-.335,0-.469.2-.469.535v1.608c0,6.433,0,11.726.335,14.539.2,1.944.6,3.417,2.613,3.686a29.19,29.19,0,0,0,3.015.267c.4,0,.536.2.536.4,0,.335-.334.536-1.072.536-3.685,0-7.906-.2-8.241-.2-.067,0-4.288.2-6.3.2-.737,0-1.072-.134-1.072-.536,0-.2.134-.4.536-.4a10.341,10.341,0,0,0,2.01-.267c1.34-.269,1.675-1.742,1.943-3.686.335-2.813.335-8.106.335-14.539Zm5.36,5.829a.875.875,0,0,0,.469.8c1,.6,4.087,1.072,7.035,1.072a8.676,8.676,0,0,0,5.025-1.273c2.345-1.608,4.088-5.226,4.088-10.318,0-8.376-4.423-13.4-11.592-13.4a20.245,20.245,0,0,0-4.489.4.81.81,0,0,0-.536.805Z"/>
      <path id="パス_899" data-name="パス 899" d="M421.922,252.507a.705.705,0,0,0-.67.536l-4.02,11.86a14.142,14.142,0,0,0-.938,4.489c0,1.34,1.273,1.942,2.412,1.942h.6c.67,0,.871.135.871.4,0,.4-.6.536-1.206.536-1.608,0-4.288-.2-5.025-.2s-4.422.2-7.571.2c-.871,0-1.273-.134-1.273-.536,0-.268.335-.4.938-.4a14.16,14.16,0,0,0,1.608-.133c3.082-.4,4.422-2.949,5.628-6.3l15.209-41.609c.8-2.211,1.072-2.612,1.474-2.612s.67.335,1.474,2.412c1.005,2.546,11.525,30.217,15.612,40.4,2.412,5.963,4.355,7.036,5.762,7.438a8.821,8.821,0,0,0,2.613.4c.4,0,.737.068.737.4,0,.4-.6.536-1.34.536-1.005,0-5.9,0-10.52-.134-1.272-.067-2.01-.067-2.01-.47,0-.267.2-.4.469-.468.4-.134.8-.738.4-1.809l-6.231-16.483a.585.585,0,0,0-.6-.4Zm13.534-2.412c.335,0,.335-.2.268-.469l-6.365-18.091q-.5-1.506-1.005,0l-5.9,18.091c-.134.335,0,.469.2.469Z"/>
      <path id="パス_900" data-name="パス 900" d="M462.859,252.507c0-24.187.134-15.477.067-28.475,0-2.614.2-3.35.737-3.35s1.675,1.474,2.345,2.144c1.005,1.138,10.988,11.926,21.307,22.981,6.632,7.1,13.936,15.276,16.08,17.487l-.737-34.036c-.067-4.355-.536-5.829-2.613-6.365a13.856,13.856,0,0,0-2.881-.335c-.738,0-.938-.2-.938-.47,0-.4.535-.469,1.34-.469,3.015,0,6.231.2,6.968.2s2.948-.2,5.7-.2c.737,0,1.206.068,1.206.469,0,.269-.268.4-.737.47-.536.066-.938.134-1.742.268-1.876.4-2.345,1.407-2.345,6.03l-.134,39.129c0,4.422-.134,4.757-.6,4.757-.536,0-1.34-.738-4.891-4.289-.737-.669-10.386-10.519-17.488-18.157-7.772-8.375-15.343-16.817-17.487-19.229l.871,32.093c.134,5.495.8,7.237,2.613,7.773a14.68,14.68,0,0,0,3.35.4c.335,0,.536.135.536.4,0,.4-.4.536-1.206.536-3.819,0-6.5-.2-7.1-.2s-3.417.2-6.432.2c-.67,0-1.072-.068-1.072-.536,0-.268.2-.4.536-.4a9.605,9.605,0,0,0,2.747-.4c1.675-.47,2.01-2.412,2.01-8.51Z"/>
      <path id="パス_901" data-name="パス 901" d="M528.519,241.05c0-10.452,0-12.328-.134-14.473-.134-2.277-.469-3.349-2.68-3.818a12.452,12.452,0,0,0-2.279-.2c-.468,0-.736-.135-.736-.4,0-.4.335-.537,1.071-.537,3.016,0,7.237.2,7.572.2.8,0,5.025-.2,9.045-.2,6.633,0,18.894-.6,26.867,7.639a23.938,23.938,0,0,1,6.5,17.018,27.387,27.387,0,0,1-7.237,18.894c-2.88,3.016-8.911,7.7-20.3,7.7-2.881,0-6.432-.2-9.313-.4-2.948-.2-5.226-.4-5.561-.4-.134,0-1.273,0-2.68.067-1.34,0-2.881.134-3.886.134-.738,0-1.072-.134-1.072-.536,0-.2.134-.4.669-.4a13.822,13.822,0,0,0,1.876-.267c1.341-.269,1.676-1.742,1.944-3.686.335-2.813.335-8.106.335-14.539Zm5.628,7.236c0,7.1.067,13.266.134,14.54.067,1.674.2,4.355.737,5.091.871,1.274,3.484,2.681,11.39,2.681a22.484,22.484,0,0,0,15.946-6.231c3.485-3.417,5.361-9.85,5.361-16.014a23.966,23.966,0,0,0-6.433-16.884c-6.3-6.634-13.936-7.571-21.909-7.571a17.893,17.893,0,0,0-4.355.469,1.213,1.213,0,0,0-.8,1.339c-.067,2.279-.067,9.113-.067,14.272Z"/>
      <path id="パス_902" data-name="パス 902" d="M585.669,271.4c-.938-.469-1.005-.738-1.005-2.546,0-3.351.268-6.03.335-7.1.067-.737.2-1.072.536-1.072.4,0,.469.2.469.737a11.81,11.81,0,0,0,.2,2.48c1.005,4.958,5.427,6.834,9.916,6.834,6.432,0,9.581-4.623,9.581-8.911,0-4.623-1.943-7.3-7.705-12.061l-3.015-2.478c-7.1-5.83-8.71-9.984-8.71-14.54,0-7.169,5.36-12.06,13.869-12.06a25.991,25.991,0,0,1,6.232.67,11.021,11.021,0,0,0,2.344.335c.537,0,.67.134.67.469s-.268,2.545-.268,7.1c0,1.071-.133,1.541-.468,1.541-.4,0-.47-.335-.537-.871a11.714,11.714,0,0,0-.871-3.351c-.4-.736-2.211-3.55-8.375-3.55-4.623,0-8.241,2.881-8.241,7.772,0,3.818,1.742,6.231,8.174,11.256l1.876,1.474c7.907,6.231,9.783,10.385,9.783,15.746a13.883,13.883,0,0,1-5.7,11.122,17.621,17.621,0,0,1-10.117,2.813A20.329,20.329,0,0,1,585.669,271.4Z"/>
    </g>
  </g>
</svg>
