<?xml version="1.0" encoding="UTF-8"?><svg id="_イヤー_2" xmlns="http://www.w3.org/2000/svg" viewBox="0 0 778.27 52.53"><defs><style>.cls-1{isolation:isolate;}</style></defs><g id="_イヤー_1-2"><g id="we_enrich_people" class="cls-1"><path d="M7.3,7.5c-1.07-3.55-1.94-4.56-3.69-5.23-.87-.33-2.55-.4-3.01-.4-.34,0-.6-.07-.6-.47,0-.33,.4-.47,1.07-.47,3.48,0,7.17,.2,7.91,.2,.6,0,3.55-.2,6.9-.2,.94,0,1.21,.2,1.21,.47,0,.4-.33,.47-.67,.47-.54,0-1.81,0-2.61,.4-.4,.2-.87,.74-.87,1.61s.6,3.22,1.27,6.16c1,4.29,7.97,28.88,9.05,32.63L37.52,4.29c1-2.75,1.27-3.08,1.68-3.08,.47,0,.87,.87,1.67,3.15l13.47,38.39c1.94-6.57,8.11-26,10.45-34.57,.67-2.48,.74-3.42,.74-4.29,0-1.21-.74-2.01-3.82-2.01-.33,0-.6-.2-.6-.47,0-.33,.33-.47,1.14-.47,3.42,0,6.23,.2,6.83,.2,.47,0,3.35-.2,5.43-.2,.6,0,.94,.13,.94,.4,0,.33-.2,.54-.6,.54-.27,0-1.54,.07-2.28,.33-2.01,.74-3.08,3.55-4.35,7.24-2.95,8.51-9.71,29.82-12.33,37.32-1.74,4.96-2.08,5.76-2.81,5.76-.67,0-1.07-.87-2.01-3.48L37.86,11.59c-2.48,6.63-11.66,31.16-14.07,37.39-1.07,2.81-1.54,3.55-2.21,3.55s-1-.74-2.35-5.29L7.3,7.5Z"/><path d="M90.38,20.37c0-10.45,0-12.33-.13-14.47-.13-2.28-.67-3.35-2.88-3.82-.47-.13-1.34-.13-1.94-.2-.47-.07-.87-.13-.87-.4,0-.4,.33-.54,1.07-.54,1.54,0,3.35,0,7.57,.2,.47,0,13.8,0,15.34-.07,1.47-.07,2.68-.2,3.08-.4,.4-.2,.54-.27,.74-.27s.27,.27,.27,.6c0,.47-.4,1.27-.54,3.15-.07,1.01-.13,2.28-.27,4.02-.07,.67-.27,1.14-.54,1.14-.4,0-.54-.33-.54-.87,0-.87-.13-1.67-.33-2.21-.47-1.54-1.88-2.21-4.82-2.48-1.14-.13-8.44-.2-9.18-.2-.27,0-.4,.2-.4,.67V22.71c0,.47,.07,.67,.4,.67,.87,0,9.11,0,10.65-.13,1.81-.13,2.68-.33,3.35-1.14,.33-.4,.54-.67,.8-.67,.2,0,.33,.13,.33,.54s-.33,1.54-.54,3.75c-.2,2.08-.2,3.62-.27,4.56-.07,.67-.2,1-.47,1-.4,0-.47-.54-.47-1.07,0-.6-.07-1.27-.27-1.88-.27-1-1.07-1.94-3.48-2.21-1.81-.2-8.44-.33-9.58-.33-.33,0-.47,.2-.47,.47v5.9c0,2.28-.07,10.05,0,11.46,.13,2.75,.54,4.22,2.21,4.89,1.14,.47,2.95,.6,5.56,.6,2.01,0,4.22-.07,6.03-.6,2.14-.67,2.88-2.08,3.42-4.96,.13-.74,.27-1,.6-1,.4,0,.4,.54,.4,1,0,.54-.54,5.09-.87,6.5-.47,1.74-1,1.74-3.62,1.74-4.96,0-7.17-.13-9.78-.2-2.68-.07-5.76-.2-8.38-.2-1.61,0-3.22,.27-4.96,.2-.74,0-1.07-.13-1.07-.54,0-.2,.33-.33,.74-.4,.67-.07,1.07-.07,1.54-.2,1.41-.33,2.28-1.27,2.41-6.3,.07-2.61,.13-6.03,.13-11.99v-11.79Z"/><path d="M161.07,20.37c0-10.45,0-12.33-.13-14.47-.13-2.28-.67-3.35-2.88-3.82-.47-.13-1.34-.13-1.94-.2-.47-.07-.87-.13-.87-.4,0-.4,.33-.54,1.07-.54,1.54,0,3.35,0,7.57,.2,.47,0,13.8,0,15.34-.07,1.47-.07,2.68-.2,3.08-.4,.4-.2,.54-.27,.74-.27s.27,.27,.27,.6c0,.47-.4,1.27-.54,3.15-.07,1.01-.13,2.28-.27,4.02-.07,.67-.27,1.14-.54,1.14-.4,0-.54-.33-.54-.87,0-.87-.13-1.67-.33-2.21-.47-1.54-1.88-2.21-4.82-2.48-1.14-.13-8.44-.2-9.18-.2-.27,0-.4,.2-.4,.67V22.71c0,.47,.07,.67,.4,.67,.87,0,9.11,0,10.65-.13,1.81-.13,2.68-.33,3.35-1.14,.33-.4,.54-.67,.8-.67,.2,0,.33,.13,.33,.54s-.33,1.54-.54,3.75c-.2,2.08-.2,3.62-.27,4.56-.07,.67-.2,1-.47,1-.4,0-.47-.54-.47-1.07,0-.6-.07-1.27-.27-1.88-.27-1-1.07-1.94-3.48-2.21-1.81-.2-8.44-.33-9.58-.33-.33,0-.47,.2-.47,.47v5.9c0,2.28-.07,10.05,0,11.46,.13,2.75,.54,4.22,2.21,4.89,1.14,.47,2.95,.6,5.56,.6,2.01,0,4.22-.07,6.03-.6,2.14-.67,2.88-2.08,3.42-4.96,.13-.74,.27-1,.6-1,.4,0,.4,.54,.4,1,0,.54-.54,5.09-.87,6.5-.47,1.74-1,1.74-3.62,1.74-4.96,0-7.17-.13-9.78-.2-2.68-.07-5.76-.2-8.38-.2-1.61,0-3.22,.27-4.96,.2-.74,0-1.07-.13-1.07-.54,0-.2,.33-.33,.74-.4,.67-.07,1.07-.07,1.54-.2,1.41-.33,2.28-1.27,2.41-6.3,.07-2.61,.13-6.03,.13-11.99v-11.79Z"/><path d="M203.74,31.83c0-24.19,.13-15.48,.07-28.48,0-2.61,.2-3.35,.74-3.35s1.68,1.47,2.35,2.14c1,1.14,10.99,11.93,21.31,22.98,6.63,7.1,13.94,15.28,16.08,17.49l-.74-34.04c-.07-4.36-.54-5.83-2.61-6.37-1.21-.27-2.28-.33-2.88-.33-.74,0-.94-.2-.94-.47,0-.4,.54-.47,1.34-.47,3.02,0,6.23,.2,6.97,.2s2.95-.2,5.69-.2c.74,0,1.21,.07,1.21,.47,0,.27-.27,.4-.74,.47-.54,.07-.94,.13-1.74,.27-1.88,.4-2.34,1.41-2.34,6.03l-.13,39.13c0,4.42-.13,4.76-.6,4.76-.54,0-1.34-.74-4.89-4.29-.74-.67-10.39-10.52-17.49-18.16-7.77-8.38-15.34-16.82-17.49-19.23l.87,32.09c.13,5.49,.8,7.24,2.61,7.77,1.27,.33,2.75,.4,3.35,.4,.33,0,.54,.13,.54,.4,0,.4-.4,.54-1.21,.54-3.82,0-6.5-.2-7.1-.2s-3.42,.2-6.43,.2c-.67,0-1.07-.07-1.07-.54,0-.27,.2-.4,.54-.4,.54,0,1.74-.07,2.75-.4,1.68-.47,2.01-2.41,2.01-8.51v-9.92Z"/><path d="M273.42,20.37c0-10.45,0-12.33-.13-14.47-.13-2.28-.67-3.35-2.88-3.82-.54-.13-1.67-.2-2.28-.2-.27,0-.54-.13-.54-.4,0-.4,.33-.54,1.07-.54,3.02,0,7.24,.2,7.57,.2,.74,0,5.83-.2,7.91-.2,4.22,0,8.71,.4,12.26,2.95,1.67,1.21,4.62,4.49,4.62,9.11,0,4.96-2.08,9.92-8.11,15.48,5.49,7.04,10.05,13,13.94,17.15,3.62,3.82,6.5,4.56,8.17,4.82,1.27,.2,2.21,.2,2.61,.2,.33,0,.6,.2,.6,.4,0,.4-.4,.54-1.61,.54h-4.76c-3.75,0-5.43-.33-7.17-1.27-2.88-1.54-5.23-4.82-9.04-9.85-2.81-3.69-5.96-8.17-7.3-9.92-.27-.27-.47-.4-.87-.4l-8.24-.13c-.33,0-.47,.2-.47,.54v1.61c0,6.43,0,11.73,.34,14.54,.2,1.94,.6,3.42,2.61,3.69,.94,.13,2.41,.27,3.02,.27,.4,0,.54,.2,.54,.4,0,.33-.33,.54-1.07,.54-3.69,0-7.91-.2-8.24-.2-.07,0-4.29,.2-6.3,.2-.74,0-1.07-.13-1.07-.54,0-.2,.13-.4,.54-.4,.6,0,1.41-.13,2.01-.27,1.34-.27,1.67-1.74,1.94-3.69,.33-2.81,.33-8.11,.33-14.54v-11.79Zm5.36,5.83c0,.33,.13,.6,.47,.8,1,.6,4.09,1.07,7.04,1.07,1.61,0,3.48-.2,5.02-1.27,2.35-1.61,4.09-5.23,4.09-10.32,0-8.38-4.42-13.4-11.59-13.4-2.01,0-3.82,.2-4.49,.4-.33,.13-.54,.4-.54,.8V26.2Z"/><path d="M327.96,20.37c0-10.45,0-12.33-.13-14.47-.13-2.28-.8-3.42-2.28-3.75-.74-.2-1.61-.27-2.08-.27-.27,0-.54-.13-.54-.4,0-.4,.33-.54,1.07-.54,2.21,0,6.43,.2,6.77,.2s4.56-.2,6.57-.2c.74,0,1.07,.13,1.07,.54,0,.27-.27,.4-.54,.4-.47,0-.87,.07-1.67,.2-1.81,.33-2.35,1.47-2.48,3.82-.13,2.14-.13,4.02-.13,14.47v11.79c0,6.43,0,11.73,.33,14.54,.2,1.94,.6,3.42,2.61,3.69,.94,.13,2.35,.27,2.75,.27,.6,0,.8,.2,.8,.4,0,.33-.27,.54-1.01,.54-3.69,0-7.97-.2-8.31-.2s-4.56,.2-6.57,.2c-.74,0-1.07-.13-1.07-.54,0-.2,.13-.4,.74-.4,.4,0,1.14-.07,1.74-.2,1.34-.27,1.74-1.81,2.01-3.75,.33-2.81,.33-8.11,.33-14.54v-11.79Z"/><path d="M360.92,45.29c-6.5-5.83-8.11-13.47-8.11-19.83,0-4.49,1.54-12.33,7.5-18.29,4.02-4.02,10.12-7.17,20.44-7.17,2.68,0,6.43,.2,9.72,.8,2.55,.47,4.62,.67,7.1,1,.47,.07,.6,.33,.6,.74,0,.54-.2,1.34-.33,3.75-.13,2.21-.13,5.9-.2,6.9-.07,1-.2,1.41-.6,1.41-.47,0-.54-.47-.54-1.41,0-2.61-1.07-5.36-2.81-6.83-2.34-2.01-7.5-3.82-13.4-3.82-8.91,0-13.07,2.61-15.41,4.89-4.89,4.69-6.03,10.65-6.03,17.49,0,12.8,9.85,24.52,24.19,24.52,5.02,0,8.98-.6,11.66-3.35,1.41-1.47,2.28-4.42,2.48-5.63,.13-.74,.27-1,.67-1,.33,0,.47,.47,.47,1,0,.47-.8,6.3-1.47,8.58-.4,1.27-.54,1.41-1.74,1.94-2.68,1.07-7.77,1.54-12.06,1.54-10.05,0-16.82-2.48-22.11-7.24Z"/><path d="M451.51,22.18c.2,0,.4-.07,.4-.4v-1.41c0-10.45,0-12.33-.13-14.47-.13-2.28-.67-3.35-2.88-3.82-.54-.13-1.68-.2-2.28-.2-.27,0-.54-.13-.54-.4,0-.4,.33-.54,1.07-.54,3.02,0,7.24,.2,7.57,.2s4.56-.2,6.57-.2c.74,0,1.07,.13,1.07,.54,0,.27-.27,.4-.54,.4-.47,0-.87,.07-1.67,.2-1.81,.33-2.35,1.47-2.48,3.82-.13,2.14-.13,4.02-.13,14.47v11.79c0,6.43,0,11.73,.33,14.54,.2,1.94,.6,3.42,2.61,3.69,.94,.13,2.41,.27,3.02,.27,.4,0,.54,.2,.54,.4,0,.33-.33,.54-1.07,.54-3.69,0-7.91-.2-8.24-.2s-4.56,.2-6.57,.2c-.74,0-1.07-.13-1.07-.54,0-.2,.13-.4,.54-.4,.6,0,1.41-.13,2.01-.27,1.34-.27,1.68-1.74,1.94-3.69,.33-2.81,.33-8.11,.33-14.54v-7.04c0-.27-.2-.4-.4-.4h-28.41c-.2,0-.4,.07-.4,.4v7.04c0,6.43,0,11.73,.33,14.54,.2,1.94,.6,3.42,2.61,3.69,.94,.13,2.41,.27,3.02,.27,.4,0,.54,.2,.54,.4,0,.33-.34,.54-1.07,.54-3.69,0-7.91-.2-8.24-.2s-4.56,.2-6.57,.2c-.74,0-1.07-.13-1.07-.54,0-.2,.13-.4,.54-.4,.6,0,1.41-.13,2.01-.27,1.34-.27,1.68-1.74,1.94-3.69,.33-2.81,.33-8.11,.33-14.54v-11.79c0-10.45,0-12.33-.13-14.47-.13-2.28-.67-3.35-2.88-3.82-.54-.13-1.67-.2-2.28-.2-.27,0-.54-.13-.54-.4,0-.4,.33-.54,1.07-.54,3.02,0,7.24,.2,7.57,.2s4.56-.2,6.57-.2c.74,0,1.07,.13,1.07,.54,0,.27-.27,.4-.54,.4-.47,0-.87,.07-1.67,.2-1.81,.33-2.35,1.47-2.48,3.82-.13,2.14-.13,4.02-.13,14.47v1.41c0,.33,.2,.4,.4,.4h28.41Z"/><path d="M511.07,20.37c0-10.45,0-12.33-.13-14.47-.13-2.28-.67-3.35-2.88-3.82-.54-.13-1.67-.2-2.28-.2-.27,0-.54-.13-.54-.4,0-.4,.33-.54,1.07-.54,3.02,0,7.04,.2,7.57,.2,1.47,0,5.36-.2,8.44-.2,8.38,0,11.39,2.81,12.46,3.82,1.47,1.41,3.35,4.42,3.35,8.78,0,8.71-6.97,15.14-16.48,15.14-.34,0-1.07,0-1.41-.07-.33,0-.74-.13-.74-.47,0-.54,.4-.6,1.81-.6,6.5,0,11.59-4.42,11.59-11.46,0-1.67-.2-6.16-3.75-9.78s-7.64-3.35-9.18-3.35c-1.14,0-2.28,.13-2.88,.4-.4,.13-.54,.6-.54,1.27v27.54c0,6.43,0,11.73,.33,14.54,.2,1.94,.6,3.42,2.61,3.69,.94,.13,2.41,.27,3.02,.27,.4,0,.54,.2,.54,.4,0,.33-.33,.54-1.07,.54-3.69,0-7.91-.2-8.24-.2-.2,0-4.42,.2-6.43,.2-.74,0-1.07-.13-1.07-.54,0-.2,.13-.4,.54-.4,.6,0,1.41-.13,2.01-.27,1.34-.27,1.67-1.74,1.94-3.69,.33-2.81,.33-8.11,.33-14.54v-11.79Z"/><path d="M556.7,20.37c0-10.45,0-12.33-.13-14.47-.13-2.28-.67-3.35-2.88-3.82-.47-.13-1.34-.13-1.94-.2-.47-.07-.87-.13-.87-.4,0-.4,.33-.54,1.07-.54,1.54,0,3.35,0,7.57,.2,.47,0,13.8,0,15.34-.07,1.47-.07,2.68-.2,3.08-.4,.4-.2,.54-.27,.74-.27s.27,.27,.27,.6c0,.47-.4,1.27-.54,3.15-.07,1.01-.13,2.28-.27,4.02-.07,.67-.27,1.14-.54,1.14-.4,0-.54-.33-.54-.87,0-.87-.13-1.67-.33-2.21-.47-1.54-1.88-2.21-4.82-2.48-1.14-.13-8.44-.2-9.18-.2-.27,0-.4,.2-.4,.67V22.71c0,.47,.07,.67,.4,.67,.87,0,9.11,0,10.65-.13,1.81-.13,2.68-.33,3.35-1.14,.33-.4,.54-.67,.8-.67,.2,0,.33,.13,.33,.54s-.33,1.54-.54,3.75c-.2,2.08-.2,3.62-.27,4.56-.07,.67-.2,1-.47,1-.4,0-.47-.54-.47-1.07,0-.6-.07-1.27-.27-1.88-.27-1-1.07-1.94-3.48-2.21-1.81-.2-8.44-.33-9.58-.33-.33,0-.47,.2-.47,.47v5.9c0,2.28-.07,10.05,0,11.46,.13,2.75,.54,4.22,2.21,4.89,1.14,.47,2.95,.6,5.56,.6,2.01,0,4.22-.07,6.03-.6,2.14-.67,2.88-2.08,3.42-4.96,.13-.74,.27-1,.6-1,.4,0,.4,.54,.4,1,0,.54-.54,5.09-.87,6.5-.47,1.74-1,1.74-3.62,1.74-4.96,0-7.17-.13-9.78-.2-2.68-.07-5.76-.2-8.38-.2-1.61,0-3.22,.27-4.96,.2-.74,0-1.07-.13-1.07-.54,0-.2,.33-.33,.74-.4,.67-.07,1.07-.07,1.54-.2,1.41-.33,2.28-1.27,2.41-6.3,.07-2.61,.13-6.03,.13-11.99v-11.79Z"/><path d="M593.95,26.2c0-10.85,7.91-26.2,26.4-26.2,15.08,0,26.33,9.51,26.33,25.12s-10.59,27.4-26.73,27.4c-18.36,0-26-14.27-26-26.33Zm46.3,.8c0-16.08-9.78-24.72-20.37-24.72-11.19,0-19.56,7.37-19.56,22.04,0,15.61,9.38,25.66,21.44,25.66,6.03,0,18.49-3.48,18.49-22.98Z"/><path d="M665.91,20.37c0-10.45,0-12.33-.13-14.47-.13-2.28-.67-3.35-2.88-3.82-.54-.13-1.67-.2-2.28-.2-.27,0-.54-.13-.54-.4,0-.4,.33-.54,1.07-.54,3.02,0,7.04,.2,7.57,.2,1.47,0,5.36-.2,8.44-.2,8.38,0,11.39,2.81,12.46,3.82,1.47,1.41,3.35,4.42,3.35,8.78,0,8.71-6.97,15.14-16.48,15.14-.34,0-1.07,0-1.41-.07-.33,0-.74-.13-.74-.47,0-.54,.4-.6,1.81-.6,6.5,0,11.59-4.42,11.59-11.46,0-1.67-.2-6.16-3.75-9.78-3.55-3.62-7.64-3.35-9.18-3.35-1.14,0-2.28,.13-2.88,.4-.4,.13-.54,.6-.54,1.27v27.54c0,6.43,0,11.73,.33,14.54,.2,1.94,.6,3.42,2.61,3.69,.94,.13,2.41,.27,3.02,.27,.4,0,.54,.2,.54,.4,0,.33-.33,.54-1.07,.54-3.69,0-7.91-.2-8.24-.2-.2,0-4.42,.2-6.43,.2-.74,0-1.07-.13-1.07-.54,0-.2,.13-.4,.54-.4,.6,0,1.41-.13,2.01-.27,1.34-.27,1.67-1.74,1.94-3.69,.33-2.81,.33-8.11,.33-14.54v-11.79Z"/><path d="M717.16,32.29c0,9.85,.27,14.14,1.47,15.34,1.07,1.07,2.81,1.54,8.04,1.54,3.55,0,6.5-.07,8.11-2.01,.87-1.07,1.54-2.75,1.74-4.02,.07-.54,.2-.87,.6-.87,.33,0,.4,.27,.4,1s-.47,4.76-1,6.7c-.47,1.54-.67,1.81-4.22,1.81-5.76,0-11.46-.4-17.96-.4-2.08,0-4.09,.2-6.57,.2-.74,0-1.07-.13-1.07-.54,0-.2,.13-.4,.54-.4,.6,0,1.41-.13,2.01-.27,1.34-.27,1.67-1.74,1.94-3.69,.33-2.81,.33-8.11,.33-14.54v-11.79c0-10.45,0-12.33-.13-14.47-.13-2.28-.67-3.35-2.88-3.82-.54-.13-1.67-.2-2.28-.2-.27,0-.54-.13-.54-.4,0-.4,.33-.54,1.07-.54,3.02,0,7.24,.2,7.57,.2s5.23-.2,7.24-.2c.74,0,1.07,.13,1.07,.54,0,.27-.27,.4-.54,.4-.47,0-1.41,.07-2.21,.2-1.94,.33-2.48,1.47-2.61,3.82-.13,2.14-.13,4.02-.13,14.47v11.93Z"/><path d="M754.41,20.37c0-10.45,0-12.33-.13-14.47-.13-2.28-.67-3.35-2.88-3.82-.47-.13-1.34-.13-1.94-.2-.47-.07-.87-.13-.87-.4,0-.4,.34-.54,1.07-.54,1.54,0,3.35,0,7.57,.2,.47,0,13.8,0,15.34-.07,1.47-.07,2.68-.2,3.08-.4,.4-.2,.54-.27,.74-.27s.27,.27,.27,.6c0,.47-.4,1.27-.54,3.15-.07,1.01-.13,2.28-.27,4.02-.07,.67-.27,1.14-.54,1.14-.4,0-.54-.33-.54-.87,0-.87-.13-1.67-.33-2.21-.47-1.54-1.88-2.21-4.82-2.48-1.14-.13-8.44-.2-9.18-.2-.27,0-.4,.2-.4,.67V22.71c0,.47,.07,.67,.4,.67,.87,0,9.11,0,10.65-.13,1.81-.13,2.68-.33,3.35-1.14,.33-.4,.54-.67,.8-.67,.2,0,.33,.13,.33,.54s-.33,1.54-.54,3.75c-.2,2.08-.2,3.62-.27,4.56-.07,.67-.2,1-.47,1-.4,0-.47-.54-.47-1.07,0-.6-.07-1.27-.27-1.88-.27-1-1.07-1.94-3.48-2.21-1.81-.2-8.44-.33-9.58-.33-.33,0-.47,.2-.47,.47v5.9c0,2.28-.07,10.05,0,11.46,.13,2.75,.54,4.22,2.21,4.89,1.14,.47,2.95,.6,5.56,.6,2.01,0,4.22-.07,6.03-.6,2.14-.67,2.88-2.08,3.42-4.96,.13-.74,.27-1,.6-1,.4,0,.4,.54,.4,1,0,.54-.54,5.09-.87,6.5-.47,1.74-1,1.74-3.62,1.74-4.96,0-7.17-.13-9.78-.2-2.68-.07-5.76-.2-8.38-.2-1.61,0-3.22,.27-4.96,.2-.74,0-1.07-.13-1.07-.54,0-.2,.33-.33,.74-.4,.67-.07,1.07-.07,1.54-.2,1.41-.33,2.28-1.27,2.41-6.3,.07-2.61,.13-6.03,.13-11.99v-11.79Z"/></g></g></svg>