<?xml version="1.0" encoding="UTF-8"?><svg id="_イヤー_2" xmlns="http://www.w3.org/2000/svg" viewBox="0 0 393.82 52.53"><defs><style>.cls-1{isolation:isolate;}</style></defs><g id="_イヤー_1-2"><g id="through" class="cls-1"><path d="M24.52,32.16c0,6.43,0,11.73,.33,14.54,.2,1.94,.6,3.42,2.61,3.69,.94,.13,2.41,.27,3.02,.27,.4,0,.54,.2,.54,.4,0,.33-.33,.54-1.07,.54-3.69,0-7.91-.2-8.24-.2s-4.56,.2-6.57,.2c-.74,0-1.07-.13-1.07-.54,0-.2,.13-.4,.54-.4,.6,0,1.41-.13,2.01-.27,1.34-.27,1.67-1.74,1.94-3.69,.33-2.81,.33-8.11,.33-14.54V3.82c-3.28,.07-6.63,.07-9.92,.13-4.15,.07-5.76,.54-6.83,2.14-.74,1.14-.94,1.61-1.14,2.08-.2,.54-.4,.67-.67,.67-.2,0-.34-.2-.34-.6C0,7.57,1.34,1.81,1.47,1.27c.13-.4,.4-1.27,.67-1.27,.47,0,1.14,.67,2.95,.8,1.94,.2,4.49,.33,5.29,.33h25.13c2.14,0,3.69-.13,4.76-.33,1-.13,1.61-.33,1.88-.33,.33,0,.33,.4,.33,.8,0,2.01-.2,6.63-.2,7.37,0,.6-.2,.87-.47,.87-.33,0-.47-.2-.54-1.14,0-.27-.07-.47-.07-.74-.2-2.01-1.81-3.55-8.24-3.68-2.81-.07-5.63-.07-8.44-.13v28.34Z"/><path d="M90.99,22.18c.2,0,.4-.07,.4-.4v-1.41c0-10.45,0-12.33-.13-14.47-.13-2.28-.67-3.35-2.88-3.82-.54-.13-1.68-.2-2.28-.2-.27,0-.54-.13-.54-.4,0-.4,.33-.54,1.07-.54,3.02,0,7.24,.2,7.57,.2s4.56-.2,6.57-.2c.74,0,1.07,.13,1.07,.54,0,.27-.27,.4-.54,.4-.47,0-.87,.07-1.67,.2-1.81,.33-2.35,1.47-2.48,3.82-.13,2.14-.13,4.02-.13,14.47v11.79c0,6.43,0,11.73,.33,14.54,.2,1.94,.6,3.42,2.61,3.69,.94,.13,2.41,.27,3.02,.27,.4,0,.54,.2,.54,.4,0,.33-.33,.54-1.07,.54-3.69,0-7.91-.2-8.24-.2s-4.56,.2-6.57,.2c-.74,0-1.07-.13-1.07-.54,0-.2,.13-.4,.54-.4,.6,0,1.41-.13,2.01-.27,1.34-.27,1.68-1.74,1.94-3.69,.33-2.81,.33-8.11,.33-14.54v-7.04c0-.27-.2-.4-.4-.4h-28.41c-.2,0-.4,.07-.4,.4v7.04c0,6.43,0,11.73,.33,14.54,.2,1.94,.6,3.42,2.61,3.69,.94,.13,2.41,.27,3.02,.27,.4,0,.54,.2,.54,.4,0,.33-.34,.54-1.07,.54-3.69,0-7.91-.2-8.24-.2s-4.56,.2-6.57,.2c-.74,0-1.07-.13-1.07-.54,0-.2,.13-.4,.54-.4,.6,0,1.41-.13,2.01-.27,1.34-.27,1.68-1.74,1.94-3.69,.33-2.81,.33-8.11,.33-14.54v-11.79c0-10.45,0-12.33-.13-14.47-.13-2.28-.67-3.35-2.88-3.82-.54-.13-1.67-.2-2.28-.2-.27,0-.54-.13-.54-.4,0-.4,.33-.54,1.07-.54,3.02,0,7.24,.2,7.57,.2s4.56-.2,6.57-.2c.74,0,1.07,.13,1.07,.54,0,.27-.27,.4-.54,.4-.47,0-.87,.07-1.67,.2-1.81,.33-2.35,1.47-2.48,3.82-.13,2.14-.13,4.02-.13,14.47v1.41c0,.33,.2,.4,.4,.4h28.41Z"/><path d="M120.73,20.37c0-10.45,0-12.33-.13-14.47-.13-2.28-.67-3.35-2.88-3.82-.54-.13-1.67-.2-2.28-.2-.27,0-.54-.13-.54-.4,0-.4,.33-.54,1.07-.54,3.02,0,7.24,.2,7.57,.2,.74,0,5.83-.2,7.91-.2,4.22,0,8.71,.4,12.26,2.95,1.67,1.21,4.62,4.49,4.62,9.11,0,4.96-2.08,9.92-8.11,15.48,5.49,7.04,10.05,13,13.94,17.15,3.62,3.82,6.5,4.56,8.17,4.82,1.27,.2,2.21,.2,2.61,.2,.33,0,.6,.2,.6,.4,0,.4-.4,.54-1.61,.54h-4.76c-3.75,0-5.43-.33-7.17-1.27-2.88-1.54-5.23-4.82-9.04-9.85-2.81-3.69-5.96-8.17-7.3-9.92-.27-.27-.47-.4-.87-.4l-8.24-.13c-.33,0-.47,.2-.47,.54v1.61c0,6.43,0,11.73,.34,14.54,.2,1.94,.6,3.42,2.61,3.69,.94,.13,2.41,.27,3.02,.27,.4,0,.54,.2,.54,.4,0,.33-.33,.54-1.07,.54-3.69,0-7.91-.2-8.24-.2-.07,0-4.29,.2-6.3,.2-.74,0-1.07-.13-1.07-.54,0-.2,.13-.4,.54-.4,.6,0,1.41-.13,2.01-.27,1.34-.27,1.68-1.74,1.94-3.69,.33-2.81,.33-8.11,.33-14.54v-11.79Zm5.36,5.83c0,.33,.13,.6,.47,.8,1,.6,4.09,1.07,7.04,1.07,1.61,0,3.48-.2,5.02-1.27,2.35-1.61,4.09-5.23,4.09-10.32,0-8.38-4.42-13.4-11.59-13.4-2.01,0-3.82,.2-4.49,.4-.33,.13-.54,.4-.54,.8V26.2Z"/><path d="M163.95,26.2c0-10.85,7.91-26.2,26.4-26.2,15.08,0,26.33,9.51,26.33,25.12s-10.59,27.4-26.73,27.4c-18.36,0-26-14.27-26-26.33Zm46.3,.8c0-16.08-9.78-24.72-20.37-24.72-11.19,0-19.56,7.37-19.56,22.04,0,15.61,9.38,25.66,21.44,25.66,6.03,0,18.49-3.48,18.49-22.98Z"/><path d="M235.44,29.75c0,9.65,2.14,13.8,5.03,16.55,3.28,3.08,6.3,3.68,10.12,3.68,4.09,0,8.11-1.94,10.52-4.82,3.08-3.82,3.89-9.51,3.89-16.42v-8.38c0-10.45,0-12.33-.13-14.47-.13-2.28-.67-3.35-2.88-3.82-.54-.13-1.68-.2-2.28-.2-.27,0-.54-.13-.54-.4,0-.4,.33-.54,1.07-.54,3.02,0,6.7,.2,7.1,.2,.47,0,3.62-.2,5.63-.2,.74,0,1.07,.13,1.07,.54,0,.27-.27,.4-.54,.4-.47,0-.87,.07-1.68,.2-1.81,.4-2.35,1.47-2.48,3.82-.13,2.14-.13,4.02-.13,14.47v7.17c0,7.24-.8,15.28-6.16,20.03-4.82,4.29-9.85,4.96-13.8,4.96-2.28,0-9.04-.27-13.8-4.76-3.28-3.15-5.83-7.84-5.83-17.62v-9.78c0-10.45,0-12.33-.13-14.47-.13-2.28-.67-3.35-2.88-3.82-.54-.13-1.67-.2-2.28-.2-.27,0-.54-.13-.54-.4,0-.4,.33-.54,1.07-.54,3.02,0,7.1,.2,7.71,.2s4.62-.2,6.63-.2c.74,0,1.07,.13,1.07,.54,0,.27-.27,.4-.54,.4-.47,0-.87,.07-1.67,.2-1.81,.27-2.35,1.47-2.48,3.82-.13,2.14-.13,4.02-.13,14.47v9.38Z"/><path d="M326.56,45.9c0,3.01-.07,3.15-.87,3.62-4.29,2.28-10.32,3.01-14.2,3.01-5.09,0-14.61-.67-22.04-7.17-4.09-3.55-7.97-10.72-7.97-19.1,0-10.72,5.23-18.29,11.19-22.04,6.03-3.75,12.66-4.22,17.82-4.22,4.22,0,8.98,.87,10.25,1.14,1.41,.33,3.75,.6,5.43,.67,.67,.07,.8,.33,.8,.6,0,.94-.47,2.81-.47,9.51,0,1.07-.13,1.41-.6,1.41-.33,0-.4-.4-.47-1-.07-.94-.4-2.81-1.41-4.42-1.68-2.55-7.1-5.43-15.75-5.43-4.22,0-9.25,.4-14.34,4.42-3.89,3.08-6.63,9.18-6.63,17.02,0,9.45,4.76,16.28,7.1,18.56,5.29,5.16,11.39,7.17,17.55,7.17,2.41,0,5.9-.4,7.64-1.41,.87-.47,1.34-1.21,1.34-2.34v-11.39c0-5.43-.33-6.16-3.02-6.9-.54-.13-1.67-.2-2.28-.2-.27,0-.54-.13-.54-.4,0-.4,.33-.54,1.07-.54,3.02,0,7.24,.2,7.57,.2s4.56-.2,6.57-.2c.74,0,1.07,.13,1.07,.54,0,.27-.27,.4-.54,.4-.47,0-.87,.07-1.67,.2-1.81,.33-2.35,1.47-2.48,3.82-.13,2.14-.13,4.15-.13,6.97v7.5Z"/><path d="M381.29,22.18c.2,0,.4-.07,.4-.4v-1.41c0-10.45,0-12.33-.13-14.47-.13-2.28-.67-3.35-2.88-3.82-.54-.13-1.68-.2-2.28-.2-.27,0-.54-.13-.54-.4,0-.4,.33-.54,1.07-.54,3.02,0,7.24,.2,7.57,.2s4.56-.2,6.57-.2c.74,0,1.07,.13,1.07,.54,0,.27-.27,.4-.54,.4-.47,0-.87,.07-1.67,.2-1.81,.33-2.35,1.47-2.48,3.82-.13,2.14-.13,4.02-.13,14.47v11.79c0,6.43,0,11.73,.33,14.54,.2,1.94,.6,3.42,2.61,3.69,.94,.13,2.41,.27,3.02,.27,.4,0,.54,.2,.54,.4,0,.33-.33,.54-1.07,.54-3.69,0-7.91-.2-8.24-.2s-4.56,.2-6.57,.2c-.74,0-1.07-.13-1.07-.54,0-.2,.13-.4,.54-.4,.6,0,1.41-.13,2.01-.27,1.34-.27,1.68-1.74,1.94-3.69,.33-2.81,.33-8.11,.33-14.54v-7.04c0-.27-.2-.4-.4-.4h-28.41c-.2,0-.4,.07-.4,.4v7.04c0,6.43,0,11.73,.33,14.54,.2,1.94,.6,3.42,2.61,3.69,.94,.13,2.41,.27,3.02,.27,.4,0,.54,.2,.54,.4,0,.33-.34,.54-1.07,.54-3.69,0-7.91-.2-8.24-.2s-4.56,.2-6.57,.2c-.74,0-1.07-.13-1.07-.54,0-.2,.13-.4,.54-.4,.6,0,1.41-.13,2.01-.27,1.34-.27,1.68-1.74,1.94-3.69,.33-2.81,.33-8.11,.33-14.54v-11.79c0-10.45,0-12.33-.13-14.47-.13-2.28-.67-3.35-2.88-3.82-.54-.13-1.67-.2-2.28-.2-.27,0-.54-.13-.54-.4,0-.4,.33-.54,1.07-.54,3.02,0,7.24,.2,7.57,.2s4.56-.2,6.57-.2c.74,0,1.07,.13,1.07,.54,0,.27-.27,.4-.54,.4-.47,0-.87,.07-1.67,.2-1.81,.33-2.35,1.47-2.48,3.82-.13,2.14-.13,4.02-.13,14.47v1.41c0,.33,.2,.4,.4,.4h28.41Z"/></g></g></svg>