<?xml version="1.0" encoding="UTF-8"?><svg id="_イヤー_2" xmlns="http://www.w3.org/2000/svg" viewBox="0 0 376.74 52.53"><defs><style>.cls-1{isolation:isolate;}</style></defs><g id="_イヤー_1-2"><g id="creation" class="cls-1"><path d="M8.11,45.29C1.61,39.46,0,31.83,0,25.46,0,20.97,1.54,13.13,7.5,7.17,11.52,3.15,17.62,0,27.94,0c2.68,0,6.43,.2,9.72,.8,2.55,.47,4.62,.67,7.1,1,.47,.07,.6,.33,.6,.74,0,.54-.2,1.34-.33,3.75-.13,2.21-.13,5.9-.2,6.9-.07,1-.2,1.41-.6,1.41-.47,0-.54-.47-.54-1.41,0-2.61-1.07-5.36-2.81-6.83-2.34-2.01-7.5-3.82-13.4-3.82-8.91,0-13.07,2.61-15.41,4.89-4.89,4.69-6.03,10.65-6.03,17.49,0,12.8,9.85,24.52,24.19,24.52,5.02,0,8.98-.6,11.66-3.35,1.41-1.47,2.28-4.42,2.48-5.63,.13-.74,.27-1,.67-1,.33,0,.47,.47,.47,1,0,.47-.8,6.3-1.47,8.58-.4,1.27-.54,1.41-1.74,1.94-2.68,1.07-7.77,1.54-12.06,1.54-10.05,0-16.82-2.48-22.11-7.24Z"/><path d="M60.23,20.37c0-10.45,0-12.33-.13-14.47-.13-2.28-.67-3.35-2.88-3.82-.54-.13-1.67-.2-2.28-.2-.27,0-.54-.13-.54-.4,0-.4,.33-.54,1.07-.54,3.02,0,7.24,.2,7.57,.2,.74,0,5.83-.2,7.91-.2,4.22,0,8.71,.4,12.26,2.95,1.67,1.21,4.62,4.49,4.62,9.11,0,4.96-2.08,9.92-8.11,15.48,5.49,7.04,10.05,13,13.94,17.15,3.62,3.82,6.5,4.56,8.17,4.82,1.27,.2,2.21,.2,2.61,.2,.33,0,.6,.2,.6,.4,0,.4-.4,.54-1.61,.54h-4.76c-3.75,0-5.43-.33-7.17-1.27-2.88-1.54-5.23-4.82-9.04-9.85-2.81-3.69-5.96-8.17-7.3-9.92-.27-.27-.47-.4-.87-.4l-8.24-.13c-.33,0-.47,.2-.47,.54v1.61c0,6.43,0,11.73,.34,14.54,.2,1.94,.6,3.42,2.61,3.69,.94,.13,2.41,.27,3.02,.27,.4,0,.54,.2,.54,.4,0,.33-.33,.54-1.07,.54-3.69,0-7.91-.2-8.24-.2-.07,0-4.29,.2-6.3,.2-.74,0-1.07-.13-1.07-.54,0-.2,.13-.4,.54-.4,.6,0,1.41-.13,2.01-.27,1.34-.27,1.68-1.74,1.94-3.69,.33-2.81,.33-8.11,.33-14.54v-11.79Zm5.36,5.83c0,.33,.13,.6,.47,.8,1,.6,4.09,1.07,7.04,1.07,1.61,0,3.48-.2,5.02-1.27,2.35-1.61,4.09-5.23,4.09-10.32,0-8.38-4.42-13.4-11.59-13.4-2.01,0-3.82,.2-4.49,.4-.33,.13-.54,.4-.54,.8V26.2Z"/><path d="M110.75,20.37c0-10.45,0-12.33-.13-14.47-.13-2.28-.67-3.35-2.88-3.82-.47-.13-1.34-.13-1.94-.2-.47-.07-.87-.13-.87-.4,0-.4,.33-.54,1.07-.54,1.54,0,3.35,0,7.57,.2,.47,0,13.8,0,15.34-.07,1.47-.07,2.68-.2,3.08-.4,.4-.2,.54-.27,.74-.27s.27,.27,.27,.6c0,.47-.4,1.27-.54,3.15-.07,1.01-.13,2.28-.27,4.02-.07,.67-.27,1.14-.54,1.14-.4,0-.54-.33-.54-.87,0-.87-.13-1.67-.33-2.21-.47-1.54-1.88-2.21-4.82-2.48-1.14-.13-8.44-.2-9.18-.2-.27,0-.4,.2-.4,.67V22.71c0,.47,.07,.67,.4,.67,.87,0,9.11,0,10.65-.13,1.81-.13,2.68-.33,3.35-1.14,.33-.4,.54-.67,.8-.67,.2,0,.33,.13,.33,.54s-.33,1.54-.54,3.75c-.2,2.08-.2,3.62-.27,4.56-.07,.67-.2,1-.47,1-.4,0-.47-.54-.47-1.07,0-.6-.07-1.27-.27-1.88-.27-1-1.07-1.94-3.48-2.21-1.81-.2-8.44-.33-9.58-.33-.33,0-.47,.2-.47,.47v5.9c0,2.28-.07,10.05,0,11.46,.13,2.75,.54,4.22,2.21,4.89,1.14,.47,2.95,.6,5.56,.6,2.01,0,4.22-.07,6.03-.6,2.14-.67,2.88-2.08,3.42-4.96,.13-.74,.27-1,.6-1,.4,0,.4,.54,.4,1,0,.54-.54,5.09-.87,6.5-.47,1.74-1,1.74-3.62,1.74-4.96,0-7.17-.13-9.78-.2-2.68-.07-5.76-.2-8.38-.2-1.61,0-3.22,.27-4.96,.2-.74,0-1.07-.13-1.07-.54,0-.2,.33-.33,.74-.4,.67-.07,1.07-.07,1.54-.2,1.41-.33,2.28-1.27,2.41-6.3,.07-2.61,.13-6.03,.13-11.99v-11.79Z"/><path d="M155.84,31.83c-.33,0-.54,.2-.67,.54l-4.02,11.86c-.6,1.67-.94,3.28-.94,4.49,0,1.34,1.27,1.94,2.41,1.94h.6c.67,0,.87,.13,.87,.4,0,.4-.6,.54-1.21,.54-1.61,0-4.29-.2-5.02-.2s-4.42,.2-7.57,.2c-.87,0-1.27-.13-1.27-.54,0-.27,.33-.4,.94-.4,.47,0,1.07-.07,1.61-.13,3.08-.4,4.42-2.95,5.63-6.3L162.41,2.61c.8-2.21,1.07-2.61,1.47-2.61s.67,.33,1.47,2.41c1,2.55,11.52,30.22,15.61,40.4,2.41,5.96,4.35,7.04,5.76,7.44,1,.33,2.08,.4,2.61,.4,.4,0,.74,.07,.74,.4,0,.4-.6,.54-1.34,.54-1,0-5.9,0-10.52-.13-1.27-.07-2.01-.07-2.01-.47,0-.27,.2-.4,.47-.47,.4-.13,.8-.74,.4-1.81l-6.23-16.48c-.13-.27-.27-.4-.6-.4h-14.41Zm13.53-2.41c.33,0,.33-.2,.27-.47l-6.37-18.09c-.33-1-.67-1-1,0l-5.9,18.09c-.13,.33,0,.47,.2,.47h12.8Z"/><path d="M209.24,32.16c0,6.43,0,11.73,.33,14.54,.2,1.94,.6,3.42,2.61,3.69,.94,.13,2.41,.27,3.02,.27,.4,0,.54,.2,.54,.4,0,.33-.33,.54-1.07,.54-3.69,0-7.91-.2-8.24-.2s-4.56,.2-6.57,.2c-.74,0-1.07-.13-1.07-.54,0-.2,.13-.4,.54-.4,.6,0,1.41-.13,2.01-.27,1.34-.27,1.67-1.74,1.94-3.69,.33-2.81,.33-8.11,.33-14.54V3.82c-3.28,.07-6.63,.07-9.92,.13-4.15,.07-5.76,.54-6.83,2.14-.74,1.14-.94,1.61-1.14,2.08-.2,.54-.4,.67-.67,.67-.2,0-.34-.2-.34-.6,0-.67,1.34-6.43,1.47-6.97,.13-.4,.4-1.27,.67-1.27,.47,0,1.14,.67,2.95,.8,1.94,.2,4.49,.33,5.29,.33h25.13c2.14,0,3.69-.13,4.76-.33,1-.13,1.61-.33,1.88-.33,.33,0,.33,.4,.33,.8,0,2.01-.2,6.63-.2,7.37,0,.6-.2,.87-.47,.87-.33,0-.47-.2-.54-1.14,0-.27-.07-.47-.07-.74-.2-2.01-1.81-3.55-8.24-3.68-2.81-.07-5.63-.07-8.44-.13v28.34Z"/><path d="M241.27,20.37c0-10.45,0-12.33-.13-14.47-.13-2.28-.8-3.42-2.28-3.75-.74-.2-1.61-.27-2.08-.27-.27,0-.54-.13-.54-.4,0-.4,.33-.54,1.07-.54,2.21,0,6.43,.2,6.77,.2s4.56-.2,6.57-.2c.74,0,1.07,.13,1.07,.54,0,.27-.27,.4-.54,.4-.47,0-.87,.07-1.67,.2-1.81,.33-2.35,1.47-2.48,3.82-.13,2.14-.13,4.02-.13,14.47v11.79c0,6.43,0,11.73,.33,14.54,.2,1.94,.6,3.42,2.61,3.69,.94,.13,2.35,.27,2.75,.27,.6,0,.8,.2,.8,.4,0,.33-.27,.54-1.01,.54-3.69,0-7.97-.2-8.31-.2s-4.56,.2-6.57,.2c-.74,0-1.07-.13-1.07-.54,0-.2,.13-.4,.74-.4,.4,0,1.14-.07,1.74-.2,1.34-.27,1.74-1.81,2.01-3.75,.33-2.81,.33-8.11,.33-14.54v-11.79Z"/><path d="M262.1,26.2c0-10.85,7.91-26.2,26.4-26.2,15.08,0,26.33,9.51,26.33,25.12s-10.59,27.4-26.73,27.4c-18.36,0-26-14.27-26-26.33Zm46.3,.8c0-16.08-9.78-24.72-20.37-24.72-11.19,0-19.56,7.37-19.56,22.04,0,15.61,9.38,25.66,21.44,25.66,6.03,0,18.49-3.48,18.49-22.98Z"/><path d="M328.16,31.83c0-24.19,.13-15.48,.07-28.48,0-2.61,.2-3.35,.74-3.35s1.68,1.47,2.35,2.14c1,1.14,10.99,11.93,21.31,22.98,6.63,7.1,13.94,15.28,16.08,17.49l-.74-34.04c-.07-4.36-.54-5.83-2.61-6.37-1.21-.27-2.28-.33-2.88-.33-.74,0-.94-.2-.94-.47,0-.4,.54-.47,1.34-.47,3.02,0,6.23,.2,6.97,.2s2.95-.2,5.69-.2c.74,0,1.21,.07,1.21,.47,0,.27-.27,.4-.74,.47-.54,.07-.94,.13-1.74,.27-1.88,.4-2.34,1.41-2.34,6.03l-.13,39.13c0,4.42-.13,4.76-.6,4.76-.54,0-1.34-.74-4.89-4.29-.74-.67-10.39-10.52-17.49-18.16-7.77-8.38-15.34-16.82-17.49-19.23l.87,32.09c.13,5.49,.8,7.24,2.61,7.77,1.27,.33,2.75,.4,3.35,.4,.33,0,.54,.13,.54,.4,0,.4-.4,.54-1.21,.54-3.82,0-6.5-.2-7.1-.2s-3.42,.2-6.43,.2c-.67,0-1.07-.07-1.07-.54,0-.27,.2-.4,.54-.4,.54,0,1.74-.07,2.75-.4,1.68-.47,2.01-2.41,2.01-8.51v-9.92Z"/></g></g></svg>