<svg xmlns="http://www.w3.org/2000/svg" width="422" height="50" viewBox="0 0 422 50">
  <g id="logo_encircle" transform="translate(-574.25 -1892.5)">
    <path id="パス_8" data-name="パス 8" d="M574.25,1941.5h39v-9h-27v-11h24v-9h-24v-10h27v-9h-39Z"/>
    <path id="パス_9" data-name="パス 9" d="M664.25,1924.5l-26-31h-11v48h12v-31l26,31h11v-48h-12Z"/>
    <path id="パス_10" data-name="パス 10" d="M704.25,1905.5c3.307-2.934,7.367-4,13-4,4.133,0,8.06.411,11,2s5.173,3.507,6,6h13a16.212,16.212,0,0,0-5-9,24.8,24.8,0,0,0-10-6,44.771,44.771,0,0,0-14-2c-6.216,0-12.24.922-17,3a25.577,25.577,0,0,0-11,9,22.265,22.265,0,0,0-4,13,21.818,21.818,0,0,0,4,13,25.858,25.858,0,0,0,11,9c4.76,2.078,10.907,3,17,3a42.071,42.071,0,0,0,14-2c4.285-1.479,7.291-4.335,10-7a16.373,16.373,0,0,0,5-9h-13c-.889,2.567-3.031,4.448-6,6a24.748,24.748,0,0,1-11,3,19.365,19.365,0,0,1-13-5,13.18,13.18,0,0,1-5-11A15.546,15.546,0,0,1,704.25,1905.5Z"/>
    <rect id="長方形_26" data-name="長方形 26" width="12" height="48" transform="translate(758.25 1893.5)"/>
    <path id="パス_11" data-name="パス 11" d="M829.25,1917.5c1.837-2.359,2-5.7,2-9,0-4.962-1.127-8.371-5-11s-10.347-4-18-4h-24v48h13v-18h12l9,18h14l-11-19C824.709,1921.35,827.413,1919.86,829.25,1917.5Zm-13-4c-1.684,1.271-4.541,2-8,2h-11v-14h11c3.428,0,6.3.729,8,2s3,2.947,3,5A6.561,6.561,0,0,1,816.25,1913.5Z"/>
    <path id="パス_12" data-name="パス 12" d="M857.25,1905.5c3.307-2.934,7.366-4,13-4,4.133,0,8.061.411,11,2a9.616,9.616,0,0,1,5,6h14a16.206,16.206,0,0,0-5-9c-2.755-2.652-6.746-4.607-11-6a44.776,44.776,0,0,0-14-2,38.573,38.573,0,0,0-16,3,25.577,25.577,0,0,0-11,9,22.265,22.265,0,0,0-4,13,21.81,21.81,0,0,0,4,13,25.858,25.858,0,0,0,11,9,38.969,38.969,0,0,0,16,3,42.07,42.07,0,0,0,14-2,30.983,30.983,0,0,0,11-7,16.38,16.38,0,0,0,5-9h-14c-.888,2.567-3.031,4.448-6,6s-5.99,3-10,3a19.365,19.365,0,0,1-13-5,13.178,13.178,0,0,1-5-11A15.543,15.543,0,0,1,857.25,1905.5Z"/>
    <path id="パス_13" data-name="パス 13" d="M922.25,1893.5h-12v48h37v-9h-25Z"/>
    <path id="パス_14" data-name="パス 14" d="M996.25,1902.5v-9h-39v48h39v-9h-27v-11h24v-9h-24v-10Z"/>
  </g>
</svg>
