<svg xmlns="http://www.w3.org/2000/svg" width="87.79" height="98.429" viewBox="0 0 87.79 98.429">
  <g id="of" transform="translate(-255.026 -197.556)" fill="#fff" stroke-miterlimit="10">
    <path d="M 280.8834838867188 295.734619140625 C 280.4357299804688 295.734619140625 279.7858581542969 295.5294189453125 279.2326049804688 294.5518493652344 C 278.8937072753906 293.9515380859375 278.7703552246094 293.324462890625 278.65185546875 292.7177124023438 C 278.4381408691406 291.0868835449219 278.4371948242188 289.5010681152344 278.64892578125 287.8702087402344 L 278.6496276855469 287.86474609375 L 278.6500854492188 287.8592834472656 C 279.21728515625 281.2196044921875 280.6077880859375 274.1615600585938 282.9010314941406 266.2818603515625 C 285.0256042480469 258.9412536621094 287.8530883789062 251.5591583251953 291.5451965332031 243.7134552001953 L 291.8748168945312 243.0130462646484 L 291.1977844238281 243.3883514404297 C 289.9949340820312 244.0551452636719 288.8046569824219 244.6894836425781 287.5444946289062 245.3610534667969 C 286.0408935546875 246.1623687744141 284.486083984375 246.9909515380859 282.8499145507812 247.9091491699219 C 281.2013549804688 248.7676086425781 279.7339172363281 249.4522094726562 278.3639221191406 250.0019836425781 L 278.3444213867188 250.0097961425781 L 278.3265075683594 250.0207672119141 C 278.2338256835938 250.0774993896484 278.0429077148438 250.143798828125 277.87451171875 250.2023010253906 L 277.8251037597656 250.2193908691406 C 277.6997985839844 250.2626190185547 277.5702514648438 250.3072967529297 277.4525756835938 250.3722686767578 C 276.7413330078125 250.7363586425781 276.477783203125 250.9609069824219 276.4298095703125 251.4835815429688 C 275.4618530273438 257.3304443359375 272.9775085449219 262.8897399902344 268.8351745605469 268.4781494140625 C 266.8246459960938 271.1777038574219 264.8231201171875 273.4349060058594 262.7164611816406 275.3782653808594 C 261.5548706054688 276.4804382324219 260.4141540527344 277.1101989746094 259.1239929199219 277.3626403808594 C 259.0073852539062 277.3852233886719 258.8915710449219 277.4034729003906 258.7802734375 277.4167785644531 C 258.6248168945312 277.435302734375 258.4727172851562 277.4447021484375 258.3283386230469 277.4447021484375 C 257.1438903808594 277.4447021484375 256.3064880371094 276.8069763183594 255.7682952880859 275.4951171875 C 255.3617095947266 274.4559631347656 255.2091217041016 273.3243103027344 255.3033294677734 272.0392761230469 L 255.3038635253906 272.0319519042969 L 255.3039855957031 272.0245971679688 C 255.3317718505859 270.0893249511719 255.6692657470703 268.151123046875 256.3357849121094 266.0992431640625 L 256.3370971679688 266.0950927734375 L 256.3383178710938 266.0909118652344 C 257.8848876953125 260.6963806152344 260.1914367675781 256.0081481933594 263.3897705078125 251.7583160400391 L 263.3939819335938 251.7527160644531 L 263.3978881835938 251.7468872070312 L 263.4147644042969 251.7216186523438 C 263.6691589355469 251.3410034179688 263.7748718261719 251.1737670898438 263.7962951660156 251.0509185791016 L 263.8070983886719 250.9887847900391 L 263.7871704101562 250.9289398193359 C 263.7577819824219 250.8408508300781 263.671142578125 250.7215423583984 263.3423461914062 250.2941131591797 C 262.4632873535156 249.1532745361328 262.1103820800781 247.8991088867188 262.2621765136719 246.4585113525391 C 262.6636657714844 243.6261138916016 264.8681030273438 241.1997375488281 267.7492980957031 240.4183959960938 C 268.0809326171875 240.340576171875 268.3998718261719 240.2835693359375 268.7241516113281 240.2441711425781 C 269.0237426757812 240.2085418701172 269.3233947753906 240.1904296875 269.6141052246094 240.1904296875 C 271.5998840332031 240.1904296875 273.371337890625 241.0285491943359 274.8793029785156 242.6814880371094 C 275.2646179199219 243.10986328125 275.5662536621094 243.276611328125 276.0735168457031 243.3410034179688 L 276.0828552246094 243.3421783447266 L 276.0922241210938 243.3426666259766 C 276.5093383789062 243.3640441894531 276.9824829101562 243.4963684082031 277.4615783691406 243.7255706787109 C 277.9611511230469 244.0630645751953 278.1473693847656 244.4756622314453 278.0151062011719 244.9521331787109 L 278.0097351074219 244.9715423583984 L 278.0075073242188 244.9915618896484 C 277.9930114746094 245.1229553222656 277.8823547363281 245.5628509521484 277.0686950683594 245.7265167236328 C 276.964111328125 245.7373809814453 276.7103881835938 245.7649993896484 276.6661682128906 245.7728729248047 L 276.4560852050781 245.8102722167969 L 276.4600219726562 246.0236053466797 C 276.4622192382812 246.1417541503906 276.475830078125 246.3053894042969 276.4878540039062 246.4497375488281 C 276.561767578125 247.23779296875 276.6380004882812 248.0500030517578 276.6752319335938 248.9127807617188 L 276.6895446777344 249.2445373535156 L 277.00439453125 249.1390533447266 C 278.4883422851562 248.6418762207031 279.8902587890625 247.9322814941406 281.2459716796875 247.2460632324219 L 281.5028076171875 247.1161193847656 L 281.5166320800781 247.1090850830078 C 281.8643493652344 246.9322509765625 282.2120971679688 246.7554168701172 282.5598449707031 246.5775909423828 C 284.4259338378906 245.6222991943359 285.9322204589844 244.8117980957031 287.3004150390625 244.02685546875 C 288.8534240722656 243.1363220214844 290.3631591796875 242.25439453125 291.7601928710938 241.2574920654297 C 291.835205078125 241.2038726806641 291.9120178222656 241.1500701904297 291.9897766113281 241.0955810546875 C 292.4201049804688 240.7941284179688 292.9078674316406 240.4524536132812 293.2412109375 240.024658203125 C 293.6879577636719 239.4513854980469 294.024658203125 238.9469146728516 294.3008117675781 238.4370574951172 C 298.9415588378906 229.8601531982422 303.9170837402344 222.6374969482422 309.5116882324219 216.3562774658203 C 315.5276184082031 209.5506286621094 321.0362854003906 204.7604064941406 326.8484191894531 201.2804870605469 L 326.8520812988281 201.2783050537109 L 326.8556823730469 201.2759857177734 C 329.2316589355469 199.7408447265625 331.7516174316406 198.6539459228516 334.3453979492188 198.0454864501953 C 334.68115234375 197.9798126220703 334.9949035644531 197.9300231933594 335.3044738769531 197.8932800292969 C 335.7910461425781 197.8352661132812 336.2835693359375 197.8058624267578 336.7685546875 197.8058624267578 C 337.5760192871094 197.8058624267578 338.3780212402344 197.8836364746094 339.2203369140625 198.0436248779297 C 340.2593078613281 198.2303314208984 341.0668029785156 198.6496429443359 341.6228332519531 199.2903594970703 C 342.1795654296875 199.9319000244141 342.4855346679688 200.7967834472656 342.5322570800781 201.8609771728516 L 342.5324401855469 201.8652801513672 L 342.5327758789062 201.8695831298828 C 342.7309265136719 204.3914642333984 342.0496520996094 206.9021911621094 340.5079040527344 209.3320770263672 C 339.1407470703125 211.478759765625 337.3654174804688 213.4168548583984 334.9210205078125 215.4310607910156 L 334.9186096191406 215.4330291748047 L 334.916259765625 215.43505859375 C 330.0423583984375 219.6585998535156 324.741455078125 223.1931304931641 319.729736328125 226.4514007568359 C 315.8765258789062 228.8623809814453 311.8152465820312 231.3180389404297 307.3175048828125 233.9563598632812 C 304.8102722167969 235.4273223876953 302.1158752441406 236.9852447509766 299.3091125488281 238.5868682861328 L 299.3002319335938 238.5919342041016 L 299.2917785644531 238.5977172851562 C 298.6727905273438 239.0215454101562 298.2090148925781 239.4021301269531 297.9575500488281 239.8819427490234 C 290.9419860839844 252.9452056884766 285.7050170898438 266.3588256835938 282.3932800292969 279.7479858398438 L 282.3926696777344 279.7505493164062 L 282.39208984375 279.7531127929688 L 282.3819885253906 279.7979736328125 C 281.7920837402344 282.419189453125 281.1820983886719 285.1296691894531 280.796875 287.858154296875 C 280.4621276855469 289.8548583984375 280.3665466308594 291.5206909179688 280.4962463378906 293.0990600585938 L 280.5000610351562 293.2637939453125 C 280.5146484375 293.9340209960938 280.5595092773438 294.385498046875 281.0309448242188 294.5448608398438 C 281.1015319824219 294.5683288574219 281.1638488769531 294.5795593261719 281.2225952148438 294.5795593261719 C 281.2422485351562 294.5795593261719 281.2617492675781 294.5782775878906 281.2805480957031 294.5757446289062 C 281.5442810058594 294.5446166992188 281.7635498046875 294.2482299804688 281.9956970214844 293.9344482421875 L 282.0208129882812 293.9007873535156 C 282.097412109375 293.7982177734375 282.1697692871094 293.7013549804688 282.2432250976562 293.615234375 L 282.2499694824219 293.6073303222656 L 282.2560119628906 293.5989074707031 C 286.3909606933594 287.8460388183594 288.980712890625 281.6024780273438 289.9533081054688 275.0416870117188 C 290.4194030761719 271.6894836425781 290.2555847167969 268.1792602539062 290.0971374511719 264.7845764160156 L 290.0969848632812 264.7811279296875 C 290.096923828125 264.4922485351562 290.0928955078125 264.2104187011719 290.0890197753906 263.9378356933594 L 290.0873413085938 263.7867736816406 C 290.0846862792969 263.5470581054688 290.0821838378906 263.3205871582031 290.0830078125 263.1069641113281 L 290.0830078125 263.10302734375 L 290.0829162597656 263.0990905761719 C 290.0644226074219 262.427734375 289.9079895019531 262.1246643066406 289.5249938964844 262.0181579589844 C 289.2830810546875 261.9513244628906 289.1109008789062 261.8152465820312 289.0127868652344 261.6136169433594 C 288.8953552246094 261.3724060058594 288.9070739746094 261.0561828613281 289.0458068847656 260.7231140136719 C 289.1537475585938 260.4638366699219 289.3750305175781 260.3016052246094 289.6688842773438 260.2662353515625 C 289.7077941894531 260.2616577148438 289.7490234375 260.2593078613281 289.7906188964844 260.2593078613281 C 290.0128173828125 260.2593078613281 290.2165222167969 260.3252258300781 290.3482666015625 260.3805236816406 L 290.3741455078125 260.3910217285156 L 290.4697265625 260.4493713378906 L 290.4722290039062 260.4508972167969 L 290.4747314453125 260.4523620605469 C 290.5377502441406 260.4888305664062 290.5879211425781 260.5178833007812 290.6684265136719 260.5902709960938 C 290.7840270996094 260.7142639160156 291.0224304199219 260.9641723632812 291.5657043457031 260.964111328125 C 291.6416015625 260.964111328125 291.7220153808594 260.9591064453125 291.8046875 260.94921875 C 292.1566467285156 260.9072265625 292.4751892089844 260.7879333496094 292.6463317871094 260.723876953125 L 292.6536560058594 260.7211303710938 C 292.6973876953125 260.7048950195312 292.751708984375 260.6849365234375 292.7780456542969 260.6767883300781 L 292.7918395996094 260.6724853515625 L 292.8050842285156 260.6666564941406 C 295.8452453613281 259.322998046875 298.4636840820312 257.3385925292969 300.6241149902344 255.5746459960938 L 300.62646484375 255.57275390625 L 300.6287231445312 255.5707855224609 C 302.0618286132812 254.3419952392578 302.4548645019531 253.9895477294922 302.5616149902344 253.8888244628906 L 302.5785522460938 253.8728179931641 L 302.5922546386719 253.8539581298828 C 302.6124572753906 253.826171875 302.6408081054688 253.7960662841797 302.6744384765625 253.7666625976562 C 302.7727661132812 253.6895446777344 303.1818237304688 253.3947906494141 303.3918151855469 253.3129272460938 L 303.3963317871094 253.3111572265625 L 303.4007873535156 253.3092041015625 C 303.4355163574219 253.2940979003906 303.4967956542969 253.2751617431641 303.5646057128906 253.2673645019531 C 303.5886535644531 253.2644958496094 303.6119689941406 253.2630920410156 303.6349487304688 253.2630920410156 C 303.8516235351562 253.2630920410156 304.0457153320312 253.3881988525391 304.117919921875 253.5744018554688 L 304.1202697753906 253.5804748535156 L 304.1229553222656 253.58642578125 C 304.2239990234375 253.8114318847656 304.0857543945312 254.1652374267578 303.8940734863281 254.3336181640625 C 303.2157287597656 254.8830413818359 302.8811340332031 255.1532897949219 302.69677734375 255.2862091064453 L 302.6898498535156 255.2911987304688 L 302.6832580566406 255.2966613769531 L 301.8342590332031 256.0016479492188 L 301.83203125 256.0035400390625 L 301.8298034667969 256.0054626464844 C 299.0943298339844 258.3873596191406 296.7031860351562 260.00927734375 294.3047180175781 261.1097717285156 L 294.2897338867188 261.1162719726562 C 293.4364318847656 261.4879455566406 292.5541076660156 261.8722839355469 291.6319885253906 262.0526733398438 C 291.5637817382812 262.0653076171875 291.503173828125 262.0822448730469 291.4490051269531 262.1039428710938 L 291.226318359375 262.1931762695312 L 291.3011779785156 262.4048156738281 C 291.3017272949219 262.4085998535156 291.3023071289062 262.4128112792969 291.3030090332031 262.4174499511719 C 291.3062438964844 262.4395141601562 291.3103942871094 262.4674377441406 291.3167114257812 262.5009155273438 C 291.3494262695312 262.9595947265625 291.3813781738281 263.4129943847656 291.4132080078125 263.8645935058594 C 291.4969177246094 265.0517272949219 291.5834655761719 266.2792663574219 291.6787414550781 267.5319519042969 C 292.1403503417969 273.9044494628906 290.7866821289062 280.3926391601562 287.6553039550781 286.8154296875 C 286.2388610839844 289.7955627441406 284.844970703125 292.1116027832031 283.2679138183594 294.1056213378906 C 282.9175415039062 294.4953308105469 282.5552978515625 294.8976135253906 282.1715698242188 295.19287109375 L 282.1679077148438 295.1956481933594 L 282.1643981933594 295.1985778808594 C 281.7965698242188 295.5036926269531 281.4224548339844 295.6807250976562 281.0524597167969 295.7247619628906 C 280.9970397949219 295.7312927246094 280.9400939941406 295.734619140625 280.8834838867188 295.734619140625 Z M 266.6565856933594 253.0180358886719 C 264.9942016601562 255.1554260253906 263.4422912597656 257.5823669433594 261.7733459472656 260.6546630859375 L 261.7702026367188 260.660400390625 L 261.7673950195312 260.6663208007812 C 260.2543640136719 263.8367614746094 258.5821838378906 267.5599060058594 257.8895263671875 271.6280517578125 C 257.6710815429688 272.7747497558594 257.5938720703125 273.7704162597656 257.6608581542969 274.5825500488281 L 257.6620178222656 274.5967102050781 L 257.6647644042969 274.610595703125 C 257.8739929199219 275.6665649414062 258.2076416015625 276.1374816894531 258.7465515136719 276.1374816894531 C 258.8106689453125 276.1374816894531 258.8675842285156 276.1307067871094 258.913330078125 276.1252746582031 C 259.19189453125 276.0927124023438 259.5329895019531 275.9706115722656 259.9557800292969 275.7520751953125 L 259.9599914550781 275.7499084472656 L 259.964111328125 275.7475891113281 C 261.0465698242188 275.1351928710938 262.0055541992188 274.21044921875 262.8008728027344 273.3866577148438 C 265.2733459472656 270.8085632324219 267.2558288574219 268.2799987792969 268.8623352050781 265.6556091308594 C 271.7543334960938 261.2154235839844 273.5711975097656 256.9801025390625 274.416259765625 252.7085113525391 C 274.4644775390625 252.488037109375 274.5251159667969 252.2021026611328 274.5571899414062 251.9892883300781 L 274.6099548339844 251.6394958496094 L 274.2626342773438 251.7065277099609 C 274.1096801757812 251.7360534667969 273.905517578125 251.7850952148438 273.6384582519531 251.8564910888672 C 272.7848205566406 252.0700988769531 271.7702941894531 252.305908203125 270.7474365234375 252.4277496337891 C 270.2357177734375 252.4887542724609 269.7569885253906 252.5184173583984 269.2838439941406 252.5184173583984 C 268.8363342285156 252.5184173583984 268.3915710449219 252.4903564453125 267.9619140625 252.4350433349609 L 267.9560852050781 252.4342956542969 L 267.9502563476562 252.4338226318359 C 267.8851013183594 252.4285278320312 267.8202209472656 252.4258422851562 267.7574157714844 252.4258422851562 C 267.680908203125 252.4258422851562 267.6077880859375 252.4298248291016 267.5401611328125 252.4376831054688 C 267.1673889160156 252.4818725585938 266.9028930664062 252.6555786132812 266.6565856933594 253.0180358886719 Z M 274.0768127441406 246.4023590087891 C 271.8371276855469 247.3470916748047 270.1286315917969 249.1173706054688 268.62109375 250.6793823242188 L 268.2563781738281 251.0572967529297 L 268.7796936035156 251.1020812988281 C 269.1647644042969 251.1350555419922 269.5110473632812 251.1510620117188 269.8382873535156 251.1510620117188 C 270.1902770996094 251.1510620117188 270.5148315429688 251.1328125 270.8305358886719 251.0952453613281 C 271.8737487792969 250.9710998535156 272.9014282226562 250.7143096923828 273.895263671875 250.4659729003906 C 274.0321960449219 250.4317779541016 274.1690979003906 250.3975677490234 274.3060302734375 250.3636932373047 C 274.422607421875 250.3350677490234 274.618408203125 250.2869873046875 274.7442321777344 250.1210327148438 C 274.8981323242188 249.9176940917969 274.9008483886719 249.6140441894531 274.9030456542969 249.3700408935547 C 274.9035339355469 249.3139801025391 274.9040222167969 249.2610321044922 274.9065246582031 249.2204437255859 C 274.9264221191406 248.8928527832031 274.9337463378906 248.5953979492188 274.928955078125 248.310791015625 C 274.9281616210938 248.2621154785156 274.9275512695312 248.2120666503906 274.9269409179688 248.1611175537109 C 274.9209289550781 247.6694946289062 274.9141235351562 247.1122589111328 274.7520446777344 246.6476593017578 C 274.718505859375 246.5522155761719 274.6902770996094 246.4782562255859 274.6655578613281 246.4209747314453 L 274.5708618164062 246.2014312744141 L 274.3473205566406 246.2862548828125 C 274.2774353027344 246.3127746582031 274.1864624023438 246.3518218994141 274.0768127441406 246.4023590087891 Z M 269.7347412109375 242.2462158203125 C 269.541748046875 242.2462158203125 269.3461608886719 242.2578430175781 269.1534729003906 242.28076171875 C 266.724609375 242.570068359375 264.6227111816406 244.757080078125 264.3682861328125 247.2597045898438 C 264.3103942871094 247.9395294189453 264.4332275390625 248.5632934570312 264.7433471679688 249.1707000732422 L 264.7518615722656 249.1873931884766 L 264.7627868652344 249.2026214599609 C 264.8130187988281 249.272705078125 264.8565368652344 249.3283538818359 264.8958435058594 249.3727569580078 L 265.0619201660156 249.5602416992188 L 265.2490844726562 249.3938446044922 C 265.2978515625 249.3505096435547 265.3755187988281 249.279296875 265.4866638183594 249.1617584228516 C 267.343017578125 247.1579284667969 269.582275390625 244.9200286865234 272.6941223144531 243.7017974853516 L 273.0430603027344 243.565185546875 L 272.782958984375 243.2954559326172 C 272.4750366210938 242.9761657714844 272.2744445800781 242.8636169433594 271.9945068359375 242.7613525390625 C 271.2387390136719 242.4195251464844 270.4784851074219 242.2462158203125 269.7347412109375 242.2462158203125 Z M 300.6309814453125 235.1448364257812 C 300.4185180664062 235.4615020751953 300.2422790527344 235.7684783935547 300.0503845214844 236.1079864501953 L 299.6065368652344 236.8932037353516 L 300.3912658691406 236.4485015869141 C 306.7285461425781 232.8570861816406 312.2689514160156 229.5800933837891 317.3291015625 226.4302368164062 C 321.9207763671875 223.5575866699219 327.8888549804688 219.6831665039062 333.3323364257812 215.1806488037109 C 335.4575500488281 213.4061431884766 337.1112976074219 211.7803802490234 338.3889465332031 210.2097625732422 C 340.1388854980469 208.03662109375 341.0401916503906 205.94775390625 341.2259216308594 203.6353149414062 C 341.3810119628906 202.1946105957031 341.1908569335938 201.2068176269531 340.6446533203125 200.6154022216797 C 340.1289672851562 200.0553436279297 339.2395629882812 199.7829742431641 337.9259033203125 199.7829742431641 C 337.8339233398438 199.7829742431641 337.7384338378906 199.7843170166016 337.6419982910156 199.7869873046875 L 337.5950317382812 199.7868804931641 C 337.212890625 199.7868804931641 336.8497314453125 199.8084411621094 336.4848327636719 199.8528289794922 C 334.7751770019531 200.0563201904297 333.2359924316406 200.7207946777344 332.0861511230469 201.2769317626953 L 332.0838012695312 201.278076171875 L 332.0814819335938 201.2792663574219 C 328.6543884277344 203.0260772705078 325.3611755371094 205.4571533203125 321.717529296875 208.9300384521484 C 313.7130737304688 216.2984466552734 306.8143310546875 224.8746795654297 300.6309814453125 235.1448364257812 Z" stroke="none"/>
    <path d="M 336.7684631347656 198.0558471679688 L 336.7684936523438 198.0558471679688 C 336.2933959960938 198.0558471679688 335.8108215332031 198.0846557617188 335.333984375 198.1414794921875 C 335.0315856933594 198.1774291992188 334.7253723144531 198.2259826660156 334.3982849121094 198.2898864746094 C 331.8339538574219 198.8919677734375 329.3418884277344 199.96728515625 326.9913330078125 201.4859924316406 L 326.9768371582031 201.4949951171875 C 321.1874389648438 204.9612731933594 315.6974792480469 209.7359313964844 309.6983947753906 216.5225524902344 C 304.1168212890625 222.7890930175781 299.1521606445312 229.9962768554688 294.5206604003906 238.5561370849609 C 294.2377319335938 239.0784301757812 293.8938293457031 239.5939178466797 293.4383850097656 240.1783142089844 C 293.0820007324219 240.6357116699219 292.5779113769531 240.9888305664062 292.1331481933594 241.3003997802734 C 292.0560607910156 241.3543853759766 291.9799194335938 241.4076995849609 291.9054260253906 241.4609985351562 C 290.4989929199219 242.464599609375 288.9833984375 243.3499755859375 287.4248046875 244.2436981201172 C 286.0530395507812 245.0307006835938 284.5433959960938 245.843017578125 282.6736450195312 246.8001708984375 C 282.3212890625 246.9803466796875 281.9689636230469 247.1595306396484 281.6155700683594 247.3392486572266 L 281.3590393066406 247.4690399169922 C 279.9952392578125 248.1593322753906 278.5850524902344 248.8731384277344 277.0838317871094 249.3760833740234 L 276.4541015625 249.5870819091797 L 276.4254455566406 248.9235534667969 C 276.3884887695312 248.0673370361328 276.3125915527344 247.2581939697266 276.2391967773438 246.4757080078125 L 276.2387390136719 246.4705200195312 C 276.2263793945312 246.3224792480469 276.21240234375 246.1546783447266 276.2100524902344 246.0282287597656 L 276.2021789550781 245.6015319824219 L 276.6223449707031 245.5267333984375 C 276.6805114746094 245.5163726806641 276.9476928710938 245.4878997802734 277.0304260253906 245.4791717529297 C 277.5367431640625 245.3746032714844 277.739013671875 245.1454315185547 277.759033203125 244.964111328125 L 277.7634582519531 244.9240570068359 L 277.7742309570312 244.8852691650391 C 277.8746643066406 244.5234375 277.7315673828125 244.2149658203125 277.3367614746094 243.9430236816406 C 276.8931274414062 243.7329254150391 276.4590454101562 243.6117858886719 276.0794372558594 243.5923461914062 L 276.0420532226562 243.5890045166016 C 275.4730224609375 243.5167846679688 275.1198120117188 243.3227081298828 274.6946105957031 242.8499908447266 C 273.2359924316406 241.2511138916016 271.5266418457031 240.4404296875 269.6141052246094 240.4404296875 C 269.3332214355469 240.4404296875 269.0435180664062 240.4579467773438 268.7543029785156 240.4923400878906 C 268.4405517578125 240.5304565429688 268.1317749023438 240.5855865478516 267.8106079101562 240.6607971191406 C 265.0280456542969 241.4170989990234 262.8995056152344 243.7576446533203 262.5103149414062 246.4892120361328 C 262.3667907714844 247.8609466552734 262.7033386230469 249.0552215576172 263.5407409667969 250.1420135498047 C 263.8949584960938 250.6024780273438 263.9820556640625 250.7230224609375 264.0243530273438 250.8499908447266 L 264.064208984375 250.9696044921875 L 264.0425720214844 251.0938415527344 C 264.0126342773438 251.2656402587891 263.9095458984375 251.4312133789062 263.6225891113281 251.8605651855469 L 263.5895080566406 251.9086456298828 C 260.4098815917969 256.1336364746094 258.1166076660156 260.7952270507812 256.57861328125 266.1597900390625 L 256.5735473632812 266.1764526367188 C 255.9148864746094 268.2042846679688 255.5813598632812 270.118408203125 255.553955078125 272.0281677246094 L 255.5526733398438 272.0575561523438 C 255.4613647460938 273.3028564453125 255.6080627441406 274.3976440429688 256.0011291503906 275.4039916992188 C 256.5656127929688 276.777099609375 257.4315490722656 277.3256225585938 258.7505187988281 277.1685791015625 C 258.8558959960938 277.1559448242188 258.9657592773438 277.1386108398438 259.0759887695312 277.1173095703125 C 260.3174743652344 276.8743896484375 261.4187622070312 276.2649536132812 262.5418395996094 275.1993103027344 L 262.5469665527344 275.1945190429688 C 264.64208984375 273.2617797851562 266.6334838867188 271.0158386230469 268.6343383789062 268.3292846679688 C 272.75048828125 262.7761840820312 275.2194213867188 257.2549438476562 276.1817626953125 251.4512634277344 C 276.249267578125 250.759033203125 276.6831665039062 250.4853668212891 277.3353881835938 250.1513977050781 C 277.4710083007812 250.0770721435547 277.6156921386719 250.0271759033203 277.74365234375 249.9830322265625 L 277.7925720214844 249.9661102294922 C 277.9334106445312 249.9171905517578 278.1263122558594 249.8501739501953 278.1959838867188 249.8075408935547 L 278.2318115234375 249.7856140136719 L 278.2707824707031 249.7699737548828 C 279.6322021484375 249.2236480712891 281.0914001464844 248.5428924560547 282.7312622070312 247.6890563964844 C 284.3684997558594 246.7703399658203 285.9232482910156 245.9417724609375 287.4269409179688 245.1404113769531 C 288.6861572265625 244.4693450927734 289.8755187988281 243.8354949951172 291.0765991210938 243.1696929931641 L 292.4306030273438 242.4190979003906 L 291.7714233398438 243.8198852539062 C 288.0849609375 251.6535491943359 285.2620544433594 259.0235595703125 283.1410827636719 266.3517456054688 C 280.8525085449219 274.2153930664062 279.4649658203125 281.2575073242188 278.8992004394531 287.8805541992188 L 278.8968505859375 287.9024047851562 C 278.6882629394531 289.5089721679688 278.6888427734375 291.0710754394531 278.8987121582031 292.6774597167969 C 279.0129089355469 293.2622680664062 279.1326599121094 293.8662719726562 279.4501647949219 294.4287109375 C 279.8410949707031 295.1195068359375 280.3367309570312 295.484619140625 280.8834533691406 295.484619140625 C 280.9302978515625 295.484619140625 280.9773864746094 295.4818725585938 281.0229187011719 295.4765014648438 C 281.3397827148438 295.4387817382812 281.6793212890625 295.276123046875 282.0047607421875 295.0061645507812 L 282.0191040039062 294.9946899414062 C 282.3827819824219 294.7149047851562 282.7354431152344 294.3239135742188 283.0765991210938 293.9444885253906 C 284.6397094726562 291.9669799804688 286.0228576660156 289.6676940917969 287.4305725097656 286.7058715820312 C 290.5423889160156 280.3232421875 291.8877868652344 273.8779602050781 291.429443359375 267.5509033203125 C 291.3341064453125 266.2969360351562 291.2474670410156 265.0684814453125 291.1637268066406 263.8804931640625 C 291.1322326660156 263.43408203125 291.1006469726562 262.9858093261719 291.0683288574219 262.532470703125 C 291.0636901855469 262.5068359375 291.0602111816406 262.484375 291.057373046875 262.4652709960938 L 290.9105529785156 262.05029296875 L 291.3560791015625 261.8718566894531 C 291.4257507324219 261.8439331054688 291.5018310546875 261.822509765625 291.5840148925781 261.8073120117188 C 292.4793395996094 261.6321716308594 293.3489379882812 261.2533874511719 294.1898803710938 260.8870849609375 L 294.2048950195312 260.8805541992188 C 296.5795593261719 259.790283203125 298.9503784179688 258.1812133789062 301.6656494140625 255.8169250488281 L 301.674560546875 255.809326171875 L 302.5505676269531 255.0834197998047 C 302.7287292480469 254.9549713134766 303.0787353515625 254.6722717285156 303.7325439453125 254.1427307128906 C 303.8578491210938 254.0299224853516 303.9425354003906 253.794921875 303.8948974609375 253.6888580322266 L 303.8848571777344 253.664794921875 C 303.8496398925781 253.5740661621094 303.7492370605469 253.5131072998047 303.6349487304688 253.5131072998047 C 303.621826171875 253.5131072998047 303.6084289550781 253.5139007568359 303.5931701660156 253.5157165527344 C 303.5531616210938 253.5203247070312 303.5151672363281 253.5320892333984 303.5006408691406 253.5384063720703 L 303.4826354980469 253.5458526611328 C 303.3182067871094 253.6099548339844 302.9579467773438 253.8634796142578 302.8340759277344 253.9592132568359 C 302.8102416992188 253.9805908203125 302.7985534667969 253.9953308105469 302.79443359375 254.0009918212891 L 302.7670593261719 254.0386810302734 L 302.7331848144531 254.0706329345703 C 302.6007995605469 254.1955718994141 302.1564636230469 254.5901641845703 300.7914428710938 255.7605743408203 L 300.7822265625 255.7682952880859 C 298.60888671875 257.5428161621094 295.9735717773438 259.5396118164062 292.9061279296875 260.8953247070312 L 292.8796997070312 260.906982421875 L 292.8520812988281 260.9155578613281 C 292.8366394042969 260.9203491210938 292.7989196777344 260.9338684082031 292.7412719726562 260.9552612304688 L 292.7337341308594 260.9580688476562 C 292.5527648925781 261.0258178710938 292.2159423828125 261.1519165039062 291.8344116210938 261.1974487304688 C 291.7418518066406 261.20849609375 291.6514587402344 261.214111328125 291.565673828125 261.214111328125 C 290.9285583496094 261.214111328125 290.6181335449219 260.90234375 290.493408203125 260.7691650390625 C 290.4370727539062 260.7194213867188 290.4031066894531 260.6997680664062 290.3494873046875 260.668701171875 L 290.2515258789062 260.6110229492188 C 290.1409301757812 260.5646362304688 289.97119140625 260.5093078613281 289.7906188964844 260.5093078613281 C 289.7586669921875 260.5093078613281 289.7272644042969 260.5111083984375 289.6987609863281 260.514404296875 C 289.5569458007812 260.531494140625 289.3685913085938 260.5982360839844 289.2765808105469 260.8192138671875 C 289.1674499511719 261.081298828125 289.1532287597656 261.3309326171875 289.2376403808594 261.5042724609375 C 289.3038330078125 261.6404113769531 289.4194946289062 261.7296447753906 289.5919799804688 261.7772827148438 C 290.2176818847656 261.9512939453125 290.3175964355469 262.5396423339844 290.3328247070312 263.0922241210938 L 290.3330383300781 263.1000671386719 L 290.3330078125 263.10791015625 C 290.3321838378906 263.3192138671875 290.3346862792969 263.5442199707031 290.3373107910156 263.7824401855469 L 290.3389282226562 263.9318237304688 C 290.3428344726562 264.2042541503906 290.3468933105469 264.48583984375 290.3469848632812 264.7753295898438 C 290.5058898925781 268.1805419921875 290.6700744628906 271.7018432617188 290.2005920410156 275.0783081054688 C 289.2221069335938 281.678955078125 286.6174621582031 287.9592590332031 282.4590148925781 293.7448120117188 L 282.4334106445312 293.7775268554688 C 282.3651733398438 293.8574829101562 282.2951965332031 293.951171875 282.2210998535156 294.0503845214844 L 282.1966857910156 294.0830688476562 C 281.9444580078125 294.424072265625 281.6836853027344 294.7765808105469 281.3114318847656 294.8238525390625 C 281.1990051269531 294.8385314941406 281.0823364257812 294.825439453125 280.9508666992188 294.7816772460938 C 280.278076171875 294.5542602539062 280.2632141113281 293.8713684082031 280.2501220703125 293.2696228027344 L 280.2464904785156 293.1123657226562 C 280.1159973144531 291.5158081054688 280.2124633789062 289.8330993652344 280.5498046875 287.8197631835938 C 280.9364929199219 285.0823364257812 281.5473937988281 282.3677978515625 282.13818359375 279.7427368164062 L 282.1506042480469 279.6879577636719 C 285.4671325683594 266.2793273925781 290.7115478515625 252.8463134765625 297.737548828125 239.7632141113281 C 298.01318359375 239.2389984130859 298.5018310546875 238.8356170654297 299.1505432128906 238.3914337158203 L 299.1852111816406 238.3697357177734 C 302.0317993164062 236.745361328125 304.6505126953125 235.2312316894531 307.1910095214844 233.74072265625 C 311.6856384277344 231.1042175292969 315.7435607910156 228.650634765625 319.5970153808594 226.2394714355469 C 324.6003723144531 222.9866333007812 329.891845703125 219.4582214355469 334.7525329589844 215.2461242675781 L 334.7620239257812 215.2381286621094 C 337.185546875 213.2411193847656 338.9444274902344 211.3216552734375 340.2968139648438 209.1981201171875 C 341.8089294433594 206.8149719238281 342.4773559570312 204.3558959960938 342.2835693359375 201.88916015625 L 342.282470703125 201.8719482421875 C 342.1937255859375 199.8493957519531 341.1493835449219 198.644287109375 339.1737060546875 198.2892150878906 C 338.346923828125 198.1322021484375 337.5601501464844 198.0558776855469 336.7684631347656 198.0558471679688 M 341.4748840332031 203.6583557128906 C 341.2843627929688 206.0219421386719 340.3658142089844 208.1534118652344 338.5828552246094 210.3675231933594 C 337.2949523925781 211.9507751464844 335.6301879882812 213.5876770019531 333.4916687011719 215.373291015625 C 328.0367126464844 219.8852844238281 322.059814453125 223.7655029296875 317.4612121582031 226.6424560546875 C 312.3977355957031 229.7943725585938 306.8544311523438 233.0730895996094 300.5145263671875 236.6659851074219 L 298.9449157714844 237.5554962158203 L 299.8327331542969 235.9849243164062 C 300.0263671875 235.6423950195312 300.2044067382812 235.3323364257812 300.4201049804688 235.0104370117188 C 306.6142272949219 224.7234191894531 313.5255126953125 216.1318359375 321.5481872558594 208.7460327148438 C 325.2085571289062 205.2576904296875 328.5197448730469 202.8141174316406 331.9679260253906 201.0565185546875 L 331.977294921875 201.0518493652344 C 333.1447448730469 200.4872131347656 334.7088317871094 199.8124389648438 336.4546813964844 199.6046447753906 C 336.8297424316406 199.5590515136719 337.2025451660156 199.536865234375 337.5944519042969 199.536865234375 L 337.638671875 199.5369873046875 C 337.7362060546875 199.5343322753906 337.8328247070312 199.5329895019531 337.9259338378906 199.5329895019531 C 339.3133544921875 199.5329895019531 340.2629089355469 199.8317260742188 340.8283386230469 200.4457702636719 C 341.4258728027344 201.0928344726562 341.6373901367188 202.1436767578125 341.4748840332031 203.6583557128906 M 272.089111328125 242.5297698974609 C 272.4400634765625 242.6593170166016 272.6627502441406 242.8106842041016 272.962890625 243.1219024658203 L 273.4831848144531 243.661376953125 L 272.7852783203125 243.9345855712891 C 269.7226257324219 245.1335754394531 267.507568359375 247.3481597900391 265.6717834472656 249.3298034667969 L 265.6683044433594 249.3335113525391 C 265.5505065917969 249.4581298828125 265.4674072265625 249.5342712402344 265.4151611328125 249.5807037353516 L 265.0408020019531 249.9134674072266 L 264.7087097167969 249.5385131835938 C 264.6636352539062 249.4876251220703 264.6148681640625 249.4253845214844 264.5595703125 249.3482360839844 L 264.5377197265625 249.3177642822266 L 264.5206909179688 249.2843780517578 C 264.1886901855469 248.6341705322266 264.0572509765625 247.9662933349609 264.1188049316406 247.2426147460938 L 264.1195678710938 247.2344207763672 C 264.3853454589844 244.6200714111328 266.5835266113281 242.3350982666016 269.1239318847656 242.0325164794922 C 269.3263854980469 242.0084228515625 269.5318908691406 241.9962158203125 269.7347412109375 241.9962158203125 C 270.5115051269531 241.9962158203125 271.3034973144531 242.1757049560547 272.089111328125 242.5297698974609 M 269.8382873535156 251.4010620117188 C 269.5038146972656 251.4010620117188 269.1505737304688 251.3847503662109 268.7583618164062 251.3511657714844 L 267.7117614746094 251.2615966796875 L 268.4412231445312 250.5057678222656 C 269.9646911621094 248.92724609375 271.6911315917969 247.1383666992188 273.976318359375 246.1734161376953 C 274.0894165039062 246.1213531494141 274.1843872070312 246.0806884765625 274.2586975097656 246.0525054931641 L 274.7055969238281 245.8830261230469 L 274.8950500488281 246.3218231201172 C 274.9220886230469 246.3844757080078 274.952392578125 246.4637756347656 274.9880676269531 246.5653076171875 C 275.16357421875 247.0683746337891 275.1709594726562 247.6724700927734 275.1769104003906 248.1578979492188 C 275.1775207519531 248.2085723876953 275.1781311035156 248.2583312988281 275.1789245605469 248.3065795898438 C 275.1838073730469 248.5978546142578 275.1763610839844 248.9016418457031 275.1560668945312 249.2358856201172 C 275.1539611816406 249.2698822021484 275.1535034179688 249.3196258544922 275.1530456542969 249.3722839355469 C 275.1506652832031 249.6383056640625 275.1473999023438 250.0026397705078 274.9434509277344 250.2720642089844 C 274.7640686035156 250.5086669921875 274.5046081542969 250.5723571777344 274.3660583496094 250.6063690185547 C 274.2293395996094 250.6401824951172 274.0926513671875 250.6743469238281 273.9559631347656 250.7085113525391 C 272.9545288085938 250.9587249755859 271.9190368652344 251.2174835205078 270.8600463867188 251.3434906005859 C 270.5344543457031 251.3822326660156 270.2002258300781 251.4010620117188 269.8382873535156 251.4010620117188 M 274.6604309082031 252.7622680664062 C 273.8087768554688 257.0630798339844 271.9814758300781 261.3241577148438 269.0739135742188 265.788818359375 C 267.458251953125 268.4276733398438 265.4654541015625 270.9694213867188 262.980712890625 273.560302734375 C 262.1729431152344 274.3970336914062 261.1974792480469 275.3370666503906 260.0871887207031 275.9651794433594 L 260.0705871582031 275.9741821289062 C 259.6205749511719 276.2067565917969 259.25146484375 276.33740234375 258.9429321289062 276.37353515625 C 258.8933715820312 276.37939453125 258.8255004882812 276.387451171875 258.7465515136719 276.387451171875 C 257.8640747070312 276.387451171875 257.5665588378906 275.401123046875 257.4195251464844 274.6591796875 L 257.4140319824219 274.6313781738281 L 257.4116821289062 274.6031188964844 C 257.3429260253906 273.7695922851562 257.4210815429688 272.7528076171875 257.6439208984375 271.5811157226562 C 258.3424682617188 267.4833984375 260.0221557617188 263.742919921875 261.541748046875 260.5586547851562 L 261.5536499023438 260.5353393554688 C 263.2277221679688 257.4535522460938 264.7852478027344 255.0176544189453 266.4544982910156 252.8706665039062 C 266.7407531738281 252.4523162841797 267.0669860839844 252.2420196533203 267.5112915039062 252.1893615722656 C 267.6507873535156 252.1731719970703 267.8094787597656 252.1715850830078 267.970458984375 252.1846313476562 L 267.9938354492188 252.1870880126953 C 268.4188537597656 252.2418060302734 268.8408508300781 252.2684173583984 269.2838439941406 252.2684173583984 C 269.7469787597656 252.2684173583984 270.2160339355469 252.2393341064453 270.7178649902344 252.1795043945312 C 271.7252807617188 252.0595092773438 272.7284851074219 251.8264312744141 273.5774841308594 251.6139984130859 C 273.8485107421875 251.5416107177734 274.0571594238281 251.4915618896484 274.2152404785156 251.4610443115234 L 274.9099731445312 251.3269805908203 L 274.8044128417969 252.0265960693359 C 274.7714233398438 252.2451629638672 274.7102966308594 252.5339202880859 274.6604309082031 252.7622680664062 M 336.7684936523438 197.5558471679688 C 337.5887451171875 197.5558776855469 338.4158020019531 197.6363525390625 339.2669982910156 197.7980041503906 C 341.4649963378906 198.1929931640625 342.6830139160156 199.5950012207031 342.7820129394531 201.8500061035156 C 342.9840087890625 204.4209899902344 342.2900085449219 206.9900207519531 340.718994140625 209.4660034179688 C 339.3370056152344 211.6360168457031 337.5459899902344 213.5920104980469 335.0799865722656 215.6239929199219 C 330.1940002441406 219.8580017089844 324.885009765625 223.3979797363281 319.8659973144531 226.6609802246094 C 316.0320129394531 229.0599975585938 311.9769897460938 231.5130004882812 307.4440002441406 234.1719970703125 C 304.9349975585938 235.6440124511719 302.2789916992188 237.1799926757812 299.4330139160156 238.8040008544922 C 298.8429870605469 239.2079925537109 298.4079895019531 239.5610046386719 298.1789855957031 239.9980010986328 C 291.1700134277344 253.0489959716797 285.9419860839844 266.4419860839844 282.635986328125 279.8080139160156 C 282.0450134277344 282.4339904785156 281.4299926757812 285.1610107421875 281.0440063476562 287.89599609375 C 280.7109985351562 289.8810119628906 280.6170043945312 291.5249938964844 280.7460021972656 293.0859985351562 L 280.75 293.2579956054688 C 280.7650146484375 293.947998046875 280.8210144042969 294.2099914550781 281.1109924316406 294.3080139160156 C 281.1650085449219 294.3259887695312 281.2099304199219 294.3330078125 281.2470092773438 294.3280029296875 C 281.4079895019531 294.3089904785156 281.614013671875 294.0299987792969 281.7959899902344 293.7839965820312 C 281.8819885253906 293.6690063476562 281.9660034179688 293.5549926757812 282.0530090332031 293.4530029296875 C 286.1549987792969 287.7460021972656 288.739013671875 281.5280151367188 289.7059936523438 275.0050048828125 C 290.1690063476562 271.6749877929688 290.0050048828125 268.1730041503906 289.8469848632812 264.7869873046875 C 289.8469848632812 264.4970092773438 289.8429870605469 264.2179870605469 289.8389892578125 263.9389953613281 C 289.8359985351562 263.6530151367188 289.8320007324219 263.3670043945312 289.8330078125 263.1059875488281 C 289.8139953613281 262.4159851074219 289.6449890136719 262.3110046386719 289.4580078125 262.2590026855469 C 289.0669860839844 262.1510009765625 288.8779907226562 261.9079895019531 288.7879943847656 261.7229919433594 C 288.6390075683594 261.4169921875 288.6480102539062 261.0280151367188 288.8150024414062 260.6270141601562 C 288.9570007324219 260.2860107421875 289.2569885253906 260.0639953613281 289.6390075683594 260.0180053710938 C 289.9551696777344 259.98095703125 290.2520141601562 260.0689697265625 290.4450073242188 260.1499938964844 L 290.4869995117188 260.1669921875 L 290.6000061035156 260.2359924316406 C 290.6759948730469 260.2799987792969 290.7430114746094 260.3200073242188 290.843994140625 260.4119873046875 C 290.9549865722656 260.531005859375 291.1730651855469 260.7730102539062 291.7749938964844 260.7009887695312 C 292.1019897460938 260.6619873046875 292.4030151367188 260.5480041503906 292.5660095214844 260.4869995117188 C 292.6279907226562 260.4639892578125 292.6749877929688 260.4469909667969 292.7040100097656 260.43798828125 C 295.7109985351562 259.1090087890625 298.3190002441406 257.1340026855469 300.4660034179688 255.3809967041016 C 301.8900146484375 254.1600036621094 302.2829895019531 253.8079986572266 302.3900146484375 253.7070007324219 C 302.4219970703125 253.6629943847656 302.4639892578125 253.6179962158203 302.5150146484375 253.5740051269531 C 302.5450134277344 253.5500030517578 303.0239868164062 253.1880035400391 303.3009948730469 253.0800018310547 C 303.3630065917969 253.0529937744141 303.4490051269531 253.0290069580078 303.5360107421875 253.0189971923828 C 303.8967895507812 252.9759368896484 304.22998046875 253.1719970703125 304.3510131835938 253.4839935302734 C 304.510009765625 253.8379974365234 304.3099975585938 254.3040008544922 304.0549926757812 254.5249938964844 C 303.3710021972656 255.0789947509766 303.0329895019531 255.3520050048828 302.8429870605469 255.4889984130859 L 301.9939880371094 256.1940002441406 C 299.239990234375 258.5920104980469 296.8259887695312 260.2279968261719 294.4089965820312 261.3370056152344 C 293.5320129394531 261.718994140625 292.635986328125 262.1109924316406 291.6799926757812 262.2980041503906 C 291.6099853515625 262.3110046386719 291.5669860839844 262.3259887695312 291.5419921875 262.3359985351562 C 291.5480041503906 262.3529968261719 291.5509948730469 262.3980102539062 291.5650024414062 262.4679870605469 C 291.6860046386719 264.1650085449219 291.7969970703125 265.7900085449219 291.9280090332031 267.5130004882812 C 292.3930053710938 273.9320068359375 291.031005859375 280.4619750976562 287.8800048828125 286.9249877929688 C 286.4570007324219 289.9190063476562 285.052001953125 292.2539978027344 283.4590148925781 294.2669982910156 C 283.0849914550781 294.6830139160156 282.7229919433594 295.0840148925781 282.3240051269531 295.3909912109375 C 281.9249877929688 295.7219848632812 281.5020141601562 295.9230041503906 281.0820007324219 295.9729614257812 C 280.6161499023438 296.0280456542969 279.7269592285156 295.9330139160156 279.0150146484375 294.6749877929688 C 278.656005859375 294.0390014648438 278.5280151367188 293.3880004882812 278.4049987792969 292.7579956054688 C 278.1860046386719 291.0920104980469 278.1860046386719 289.4939880371094 278.4010009765625 287.8380126953125 C 278.968994140625 281.1889953613281 280.3630065917969 274.1080017089844 282.6610107421875 266.2120056152344 C 284.7900085449219 258.8559875488281 287.6229858398438 251.4609985351562 291.3190002441406 243.6069946289062 C 288.6510009765625 245.0859985351562 285.9500122070312 246.4559936523438 282.968994140625 248.1289978027344 C 281.5020141601562 248.8930053710938 280.0020141601562 249.6139984130859 278.4570007324219 250.2339935302734 C 278.3410034179688 250.3049926757812 278.1449890136719 250.3730010986328 277.9549865722656 250.4389953613281 C 277.8200073242188 250.4859924316406 277.6830139160156 250.5299987792969 277.5700073242188 250.5930023193359 C 276.8739929199219 250.9490051269531 276.7120056152344 251.1190032958984 276.6780090332031 251.5149993896484 C 275.7019958496094 257.4209899902344 273.2040100097656 263.0039978027344 269.0360107421875 268.6270141601562 C 267.0140075683594 271.3420104980469 265.0020141601562 273.6099853515625 262.885986328125 275.56201171875 C 261.6929931640625 276.6940002441406 260.510986328125 277.3460083007812 259.1719970703125 277.6080017089844 C 259.0480041503906 277.6319885253906 258.927001953125 277.6510009765625 258.8099975585938 277.6650085449219 C 257.257080078125 277.85009765625 256.1860046386719 277.1719970703125 255.5369873046875 275.5899963378906 C 255.114013671875 274.5090026855469 254.9570007324219 273.343994140625 255.0540161132812 272.02099609375 C 255.0820007324219 270.0710144042969 255.4240112304688 268.0969848632812 256.0979919433594 266.0220031738281 C 257.6510009765625 260.6050109863281 259.9719848632812 255.8840026855469 263.1900024414062 251.6080017089844 C 263.3510131835938 251.3670043945312 263.5350036621094 251.093994140625 263.5499877929688 251.0079956054688 C 263.5299987792969 250.947998046875 263.3330078125 250.6920013427734 263.1430053710938 250.4450073242188 C 262.2229919433594 249.2510070800781 261.85400390625 247.9369964599609 262.0140075683594 246.4279937744141 C 262.4289855957031 243.4869995117188 264.7090148925781 240.9819946289062 267.68798828125 240.1759948730469 C 268.0409851074219 240.0930023193359 268.3729858398438 240.0350036621094 268.6940002441406 239.9960021972656 C 271.132080078125 239.7059936523438 273.2749938964844 240.5520172119141 275.0639953613281 242.5130004882812 C 275.4129943847656 242.9010009765625 275.656005859375 243.0359954833984 276.1050109863281 243.0930023193359 C 276.5539855957031 243.1159973144531 277.0660095214844 243.2570037841797 277.5859985351562 243.5079956054688 C 278.3949890136719 244.0460052490234 278.3489990234375 244.6840057373047 278.2560119628906 245.0189971923828 C 278.2229919433594 245.3179931640625 277.9809875488281 245.802001953125 277.1059875488281 245.9739990234375 C 276.9599914550781 245.9889984130859 276.7380065917969 246.0140075683594 276.7099914550781 246.0189971923828 C 276.7120056152344 246.1280059814453 276.7250061035156 246.2850036621094 276.7369995117188 246.4290008544922 C 276.81298828125 247.2389984130859 276.8880004882812 248.0449981689453 276.9249877929688 248.9019927978516 C 278.4830017089844 248.3800048828125 279.9280090332031 247.6320037841797 281.3900146484375 246.8930053710938 C 281.7420043945312 246.7140045166016 282.093994140625 246.5350036621094 282.4460144042969 246.3549957275391 C 284.0400085449219 245.5390014648438 285.6229858398438 244.7010040283203 287.1759948730469 243.8099975585938 C 288.6809997558594 242.9470062255859 290.2009887695312 242.0630035400391 291.614990234375 241.0540008544922 C 292.1029968261719 240.7050018310547 292.677001953125 240.3419952392578 293.0440063476562 239.8710021972656 C 293.4289855957031 239.3769989013672 293.7820129394531 238.8699951171875 294.0809936523438 238.3179931640625 C 298.7309875488281 229.7239990234375 303.718994140625 222.4839782714844 309.3250122070312 216.1900024414062 C 315.3580017089844 209.3650207519531 320.885986328125 204.5589904785156 326.7200012207031 201.0660095214844 C 329.1189880371094 199.5160217285156 331.6730041503906 198.4150085449219 334.2929992675781 197.8009948730469 C 334.635009765625 197.7339782714844 334.9549865722656 197.6830139160156 335.2749938964844 197.6449890136719 C 335.7731323242188 197.5856018066406 336.2695007324219 197.5558471679688 336.7684936523438 197.5558471679688 Z M 300.2680053710938 236.2309875488281 C 306.6010131835938 232.6419982910156 312.1430053710938 229.3639831542969 317.1969909667969 226.2179870605469 C 321.7780151367188 223.3520202636719 327.7349853515625 219.4859924316406 333.1730041503906 214.9880065917969 C 335.2820129394531 213.2270202636719 336.9259948730469 211.6119995117188 338.1950073242188 210.052001953125 C 339.9110107421875 207.9209899902344 340.7959899902344 205.8739929199219 340.9769897460938 203.6119995117188 C 341.125 202.2409973144531 340.9559936523438 201.3210144042969 340.4609985351562 200.7850036621094 C 339.9609985351562 200.2420043945312 339.0387878417969 199.997802734375 337.6449890136719 200.0370178222656 C 337.2585754394531 200.03515625 336.885009765625 200.0559997558594 336.5150146484375 200.1009826660156 C 334.8429870605469 200.3000183105469 333.3280029296875 200.9540100097656 332.1950073242188 201.5019836425781 C 328.7950134277344 203.2350158691406 325.5169982910156 205.6540222167969 321.8900146484375 209.1109924316406 C 313.8980102539062 216.4679870605469 307.0150146484375 225.0249938964844 300.8420104980469 235.2790222167969 C 300.6289978027344 235.5959777832031 300.4500122070312 235.9089965820312 300.2680053710938 236.2309875488281 Z M 265.0830078125 249.2070007324219 C 265.1279907226562 249.1670074462891 265.2009887695312 249.1000061035156 265.3049926757812 248.9900054931641 C 267.1929931640625 246.9519958496094 269.4559936523438 244.7010040283203 272.6029968261719 243.468994140625 C 272.3320007324219 243.1880035400391 272.1650085449219 243.0890045166016 271.8999938964844 242.9929962158203 C 270.9750366210938 242.5730133056641 270.0741882324219 242.4230194091797 269.1830139160156 242.5290069580078 C 266.8659973144531 242.8049926757812 264.8599853515625 244.8950042724609 264.6170043945312 247.2850036621094 C 264.5639953613281 247.9080047607422 264.677001953125 248.4909973144531 264.9660034179688 249.0570068359375 C 265.0140075683594 249.1239929199219 265.052001953125 249.1719970703125 265.0830078125 249.2070007324219 Z M 269.8382873535156 250.9010620117188 C 270.1597900390625 250.9010620117188 270.4811401367188 250.8850555419922 270.8009948730469 250.8470001220703 C 271.968994140625 250.7079925537109 273.1059875488281 250.4029998779297 274.2460021972656 250.1210021972656 C 274.3559875488281 250.093994140625 274.4760131835938 250.0610046386719 274.5450134277344 249.9700012207031 C 274.6789855957031 249.7929992675781 274.6440124511719 249.4149932861328 274.6570129394531 249.2050018310547 C 274.6749877929688 248.9089965820312 274.6839904785156 248.6119995117188 274.6789855957031 248.3150024414062 C 274.6709899902344 247.8190002441406 274.6809997558594 247.2030029296875 274.5159912109375 246.7299957275391 C 274.4840087890625 246.6390075683594 274.4580078125 246.5709991455078 274.4360046386719 246.5200042724609 C 274.3779907226562 246.5420074462891 274.2950134277344 246.5769958496094 274.1780090332031 246.6309967041016 C 272.0509948730469 247.5269927978516 270.4609985351562 249.1329956054688 268.8009948730469 250.8529968261719 C 269.1462097167969 250.8825378417969 269.4923400878906 250.9010620117188 269.8382873535156 250.9010620117188 Z M 258.7465515136719 275.887451171875 C 258.7959289550781 275.887451171875 258.8422241210938 275.8819580078125 258.8840026855469 275.8770141601562 C 259.1319885253906 275.8479614257812 259.4540100097656 275.7300109863281 259.8410034179688 275.5299987792969 C 260.8980102539062 274.9320068359375 261.8399963378906 274.0220031738281 262.6210021972656 273.2130126953125 C 265.0799865722656 270.6489868164062 267.0530090332031 268.1329956054688 268.6510009765625 265.5220031738281 C 271.5289916992188 261.10400390625 273.3320007324219 256.9010009765625 274.1709899902344 252.6600036621094 C 274.2160034179688 252.4539947509766 274.2780151367188 252.1640014648438 274.3099975585938 251.9519958496094 C 274.1390075683594 251.9850006103516 273.9200134277344 252.0399932861328 273.7030029296875 252.0980072021484 C 272.8359985351562 252.3150024414062 271.8179931640625 252.552001953125 270.7770080566406 252.6759948730469 C 269.7620239257812 252.7970123291016 268.8310241699219 252.7990112304688 267.9299926757812 252.6829986572266 C 267.8070068359375 252.6730194091797 267.6810607910156 252.6730194091797 267.5690002441406 252.6860046386719 C 267.3160095214844 252.7160034179688 267.0989990234375 252.8090057373047 266.8590087890625 253.1649932861328 C 265.1969909667969 255.3009948730469 263.6579895019531 257.7090148925781 261.9930114746094 260.7739868164062 C 260.4949951171875 263.9129943847656 258.8240051269531 267.6289978027344 258.135986328125 271.6700134277344 C 257.9200134277344 272.8039855957031 257.8450012207031 273.7739868164062 257.9100036621094 274.56201171875 C 258.1426696777344 275.7361755371094 258.4874572753906 275.887451171875 258.7465515136719 275.887451171875 Z" stroke="none" fill="#000"/>
  </g>
</svg>
